<svg width="21" height="19" viewBox="0 0 21 19" fill="none" xmlns="http://www.w3.org/2000/svg">
<path d="M12.6 13H8.4V11H0V17C0 17.5304 0.221249 18.0391 0.615076 18.4142C1.0089 18.7893 1.54305 19 2.1 19H18.9C19.457 19 19.9911 18.7893 20.3849 18.4142C20.7787 18.0391 21 17.5304 21 17V11H12.6V13ZM18.9 4H16.8V2C16.8 1.46957 16.5787 0.960859 16.1849 0.585786C15.7911 0.210714 15.257 0 14.7 0H6.3C5.74304 0 5.2089 0.210714 4.81508 0.585786C4.42125 0.960859 4.2 1.46957 4.2 2V4H2.1C1.54305 4 1.0089 4.21071 0.615076 4.58579C0.221249 4.96086 0 5.46957 0 6V10H21V6C21 5.46957 20.7787 4.96086 20.3849 4.58579C19.9911 4.21071 19.457 4 18.9 4ZM14.7 4H6.3V2H14.7V4Z" fill="#00944D"/>
</svg>
