<svg width="11" height="11" viewBox="0 0 11 11" fill="none" xmlns="http://www.w3.org/2000/svg">
<path d="M11 5.5C11 8.15788 8.53738 10.3125 5.5 10.3125C4.95526 10.3132 4.41278 10.2425 3.88644 10.1021C3.48494 10.3056 2.563 10.6961 1.012 10.9505C0.8745 10.9725 0.77 10.8295 0.824313 10.7016C1.06769 10.1269 1.28769 9.361 1.35369 8.6625C0.5115 7.81688 0 6.71 0 5.5C0 2.84212 2.46262 0.6875 5.5 0.6875C8.53738 0.6875 11 2.84212 11 5.5ZM3.4375 5.5C3.4375 5.31766 3.36507 5.1428 3.23614 5.01386C3.1072 4.88493 2.93234 4.8125 2.75 4.8125C2.56766 4.8125 2.3928 4.88493 2.26386 5.01386C2.13493 5.1428 2.0625 5.31766 2.0625 5.5C2.0625 5.68234 2.13493 5.8572 2.26386 5.98614C2.3928 6.11507 2.56766 6.1875 2.75 6.1875C2.93234 6.1875 3.1072 6.11507 3.23614 5.98614C3.36507 5.8572 3.4375 5.68234 3.4375 5.5ZM6.1875 5.5C6.1875 5.31766 6.11507 5.1428 5.98614 5.01386C5.8572 4.88493 5.68234 4.8125 5.5 4.8125C5.31766 4.8125 5.1428 4.88493 5.01386 5.01386C4.88493 5.1428 4.8125 5.31766 4.8125 5.5C4.8125 5.68234 4.88493 5.8572 5.01386 5.98614C5.1428 6.11507 5.31766 6.1875 5.5 6.1875C5.68234 6.1875 5.8572 6.11507 5.98614 5.98614C6.11507 5.8572 6.1875 5.68234 6.1875 5.5ZM8.25 6.1875C8.43234 6.1875 8.6072 6.11507 8.73614 5.98614C8.86507 5.8572 8.9375 5.68234 8.9375 5.5C8.9375 5.31766 8.86507 5.1428 8.73614 5.01386C8.6072 4.88493 8.43234 4.8125 8.25 4.8125C8.06766 4.8125 7.8928 4.88493 7.76386 5.01386C7.63493 5.1428 7.5625 5.31766 7.5625 5.5C7.5625 5.68234 7.63493 5.8572 7.76386 5.98614C7.8928 6.11507 8.06766 6.1875 8.25 6.1875Z" fill="#02378B"/>
</svg>
