<svg width="10" height="10" viewBox="0 0 10 10" fill="none" xmlns="http://www.w3.org/2000/svg">
<path d="M3.92857 1.42857H5.35714C5.35714 1.23913 5.28189 1.05745 5.14793 0.923495C5.01398 0.789541 4.8323 0.714286 4.64286 0.714286C4.45342 0.714286 4.27174 0.789541 4.13778 0.923495C4.00383 1.05745 3.92857 1.23913 3.92857 1.42857ZM3.21429 1.42857C3.21429 1.04969 3.3648 0.686328 3.6327 0.418419C3.90061 0.15051 4.26398 0 4.64286 0C5.02174 0 5.3851 0.15051 5.65301 0.418419C5.92092 0.686328 6.07143 1.04969 6.07143 1.42857H8.92857C9.02329 1.42857 9.11413 1.4662 9.18111 1.53318C9.24809 1.60015 9.28572 1.69099 9.28572 1.78571C9.28572 1.88043 9.24809 1.97128 9.18111 2.03825C9.11413 2.10523 9.02329 2.14286 8.92857 2.14286H8.52571L7.665 8.45571C7.60663 8.88352 7.39522 9.27569 7.06993 9.55962C6.74464 9.84354 6.32749 9.99999 5.89571 10H3.39C2.95823 9.99999 2.54108 9.84354 2.21579 9.55962C1.89049 9.27569 1.67909 8.88352 1.62071 8.45571L0.76 2.14286H0.357143C0.262423 2.14286 0.171582 2.10523 0.104605 2.03825C0.0376274 1.97128 0 1.88043 0 1.78571C0 1.69099 0.0376274 1.60015 0.104605 1.53318C0.171582 1.4662 0.262423 1.42857 0.357143 1.42857H3.21429ZM3.92857 3.92857C3.92857 3.83385 3.89094 3.74301 3.82397 3.67603C3.75699 3.60906 3.66615 3.57143 3.57143 3.57143C3.47671 3.57143 3.38587 3.60906 3.31889 3.67603C3.25191 3.74301 3.21429 3.83385 3.21429 3.92857V7.5C3.21429 7.59472 3.25191 7.68556 3.31889 7.75254C3.38587 7.81952 3.47671 7.85714 3.57143 7.85714C3.66615 7.85714 3.75699 7.81952 3.82397 7.75254C3.89094 7.68556 3.92857 7.59472 3.92857 7.5V3.92857ZM5.71429 3.57143C5.61957 3.57143 5.52873 3.60906 5.46175 3.67603C5.39477 3.74301 5.35714 3.83385 5.35714 3.92857V7.5C5.35714 7.59472 5.39477 7.68556 5.46175 7.75254C5.52873 7.81952 5.61957 7.85714 5.71429 7.85714C5.80901 7.85714 5.89985 7.81952 5.96682 7.75254C6.0338 7.68556 6.07143 7.59472 6.07143 7.5V3.92857C6.07143 3.83385 6.0338 3.74301 5.96682 3.67603C5.89985 3.60906 5.80901 3.57143 5.71429 3.57143Z" fill="#C90415"/>
</svg>
