<svg width="16" height="16" viewBox="0 0 16 16" fill="none" xmlns="http://www.w3.org/2000/svg">
<path fill-rule="evenodd" clip-rule="evenodd" d="M8.00008 0.666626C3.95008 0.666626 0.666748 3.94996 0.666748 7.99996C0.666748 12.05 3.95008 15.3333 8.00008 15.3333C12.0501 15.3333 15.3334 12.05 15.3334 7.99996C15.3334 3.94996 12.0501 0.666626 8.00008 0.666626ZM7.26142 5.95663C7.41475 5.65463 7.52808 5.51129 7.62208 5.43663C7.69275 5.38063 7.78875 5.33329 8.00008 5.33329C8.41675 5.33329 8.66675 5.64663 8.66675 5.98529C8.66675 6.17063 8.63075 6.26263 8.53208 6.37996C8.39408 6.54396 8.13875 6.74329 7.63341 7.07729L7.33342 7.27463V8.66663C7.33342 8.84344 7.40365 9.01301 7.52868 9.13803C7.6537 9.26305 7.82327 9.33329 8.00008 9.33329C8.17689 9.33329 8.34646 9.26305 8.47149 9.13803C8.59651 9.01301 8.66675 8.84344 8.66675 8.66663V7.98863C9.02808 7.73929 9.33142 7.50063 9.55141 7.23929C9.86941 6.86196 10.0001 6.45929 10.0001 5.98529C10.0001 5.00529 9.24475 3.99996 8.00008 3.99996C7.54408 3.99996 7.14075 4.11729 6.79475 4.39129C6.47208 4.64663 6.25208 4.99796 6.07208 5.35463C6.03025 5.43294 6.00449 5.51882 5.9963 5.60722C5.98811 5.69562 5.99766 5.78477 6.02439 5.86943C6.05113 5.9541 6.0945 6.03257 6.15197 6.10024C6.20943 6.16791 6.27984 6.22342 6.35905 6.26352C6.43827 6.30361 6.52469 6.32748 6.61325 6.33372C6.70181 6.33997 6.79073 6.32846 6.87478 6.29987C6.95884 6.27128 7.03634 6.2262 7.10273 6.16725C7.16912 6.10831 7.22307 6.0367 7.26142 5.95663ZM8.66675 11C8.66675 10.8231 8.59651 10.6536 8.47149 10.5286C8.34646 10.4035 8.17689 10.3333 8.00008 10.3333C7.82327 10.3333 7.6537 10.4035 7.52868 10.5286C7.40365 10.6536 7.33342 10.8231 7.33342 11V11.3333C7.33342 11.5101 7.40365 11.6797 7.52868 11.8047C7.6537 11.9297 7.82327 12 8.00008 12C8.17689 12 8.34646 11.9297 8.47149 11.8047C8.59651 11.6797 8.66675 11.5101 8.66675 11.3333V11Z" fill="white"/>
</svg>
