<svg width="18" height="22" viewBox="0 0 18 22" fill="none" xmlns="http://www.w3.org/2000/svg">
<path d="M15.3993 22H2.1999C1.61645 22 1.0569 21.7682 0.644337 21.3557C0.231775 20.9431 0 20.3835 0 19.8001V2.20087C0 1.61742 0.231775 1.05787 0.644337 0.645305C1.0569 0.232743 1.61645 0.000967874 2.1999 0.000967874H9.89956C9.90942 -0.000322625 9.91941 -0.000322625 9.92926 0.000967874H9.93586C9.94625 0.00421457 9.95694 0.00642529 9.96776 0.00756763C10.0646 0.0141673 10.1603 0.0328664 10.2526 0.063665H10.2988C10.3191 0.0778753 10.3383 0.093692 10.356 0.110963C10.4759 0.164248 10.5851 0.238779 10.6783 0.330953L17.278 6.93066C17.3702 7.02392 17.4448 7.13312 17.498 7.25295C17.5076 7.27673 17.5161 7.30096 17.5233 7.32555L17.5343 7.35634C17.5651 7.44764 17.5827 7.54334 17.5882 7.64013C17.5892 7.65109 17.5918 7.66184 17.5959 7.67203V7.67863C17.5977 7.68585 17.5988 7.69321 17.5992 7.70063V19.8001C17.5992 20.3835 17.3675 20.9431 16.9549 21.3557C16.5423 21.7682 15.9828 22 15.3993 22ZM11.4659 13.2004V18.7001H12.4999V16.4562H14.1058V15.5345H12.4999V14.1254H14.2994V13.2004H11.4659ZM7.39607 13.2004V18.7001H8.72262C8.99737 18.7137 9.27166 18.6654 9.52525 18.5588C9.77884 18.4522 10.0052 18.29 10.1878 18.0842C10.5671 17.6001 10.7572 16.9944 10.7223 16.3803V15.4894C10.7479 14.8818 10.5525 14.2855 10.1724 13.8109C9.81487 13.4039 9.29239 13.1795 8.75012 13.2004H7.39607ZM3.29985 13.2004V18.7001H4.33381V16.7653H5.02238C5.48216 16.7906 5.93094 16.6201 6.25872 16.2968C6.57099 15.9473 6.73302 15.4889 6.70971 15.0208C6.73012 14.5415 6.56819 14.0722 6.25652 13.7075C6.10427 13.5386 5.91652 13.4056 5.70675 13.3179C5.49698 13.2302 5.2704 13.1901 5.04328 13.2004H3.29985ZM9.89956 2.20087V7.70063H15.3993L9.89956 2.20087ZM8.74022 17.7784H8.43003V14.1254H8.80621C8.93767 14.1177 9.06898 14.143 9.18812 14.1991C9.30726 14.2553 9.41043 14.3403 9.48818 14.4466C9.64988 14.7799 9.71917 15.1506 9.68837 15.5202V16.476C9.71257 16.828 9.63668 17.18 9.46838 17.4891C9.37958 17.5928 9.26688 17.6733 9.14003 17.7237C9.01317 17.7741 8.87595 17.7928 8.74022 17.7784ZM5.04328 15.8403H4.33271V14.1254H5.05318C5.14166 14.1264 5.22845 14.1498 5.3054 14.1935C5.38236 14.2372 5.44697 14.2997 5.49316 14.3751C5.61195 14.572 5.66915 14.7986 5.65815 15.0285C5.67194 15.2424 5.61514 15.455 5.49646 15.6335C5.44252 15.7012 5.37337 15.7552 5.29462 15.7911C5.21588 15.8271 5.12976 15.8439 5.04328 15.8403Z" fill="#02378B"/>
</svg>
