<svg width="16" height="16" viewBox="0 0 16 16" fill="none" xmlns="http://www.w3.org/2000/svg">
<path d="M13.3333 4.00004H11.3333V2.66671C11.3333 1.93137 10.7353 1.33337 9.99992 1.33337H5.99992C5.26459 1.33337 4.66659 1.93137 4.66659 2.66671V4.00004H2.66659C1.93125 4.00004 1.33325 4.59804 1.33325 5.33337V7.33337H14.6666V5.33337C14.6666 4.59804 14.0686 4.00004 13.3333 4.00004ZM5.99992 2.66671H9.99992V4.00004H5.99992V2.66671ZM9.33325 9.33337H6.66659V8.00004H1.33325V12.6667C1.33325 13.402 1.93125 14 2.66659 14H13.3333C14.0686 14 14.6666 13.402 14.6666 12.6667V8.00004H9.33325V9.33337Z" fill="white"/>
</svg>
