<svg width="15" height="18" viewBox="0 0 15 18" fill="none" xmlns="http://www.w3.org/2000/svg">
<path d="M5.4 8.1H0V0.9C0 0.661305 0.0948213 0.432387 0.263604 0.263604C0.432387 0.0948211 0.661305 0 0.9 0H13.5C13.7387 0 13.9676 0.0948211 14.1364 0.263604C14.3052 0.432387 14.4 0.661305 14.4 0.9V17.1C14.4 17.3387 14.3052 17.5676 14.1364 17.7364C13.9676 17.9052 13.7387 18 13.5 18H0.9C0.661305 18 0.432387 17.9052 0.263604 17.7364C0.0948213 17.5676 0 17.3387 0 17.1V9.9H5.4V12.6L9.9 9L5.4 5.4V8.1Z" fill="#02378B"/>
</svg>
