<svg width="16" height="16" viewBox="0 0 16 16" fill="none" xmlns="http://www.w3.org/2000/svg">
<path d="M3.33341 1.33337H12.6667C12.8436 1.33337 13.0131 1.40361 13.1382 1.52864C13.2632 1.65366 13.3334 1.82323 13.3334 2.00004V14C13.3334 14.1769 13.2632 14.3464 13.1382 14.4714C13.0131 14.5965 12.8436 14.6667 12.6667 14.6667H3.33341C3.1566 14.6667 2.98703 14.5965 2.86201 14.4714C2.73699 14.3464 2.66675 14.1769 2.66675 14V2.00004C2.66675 1.82323 2.73699 1.65366 2.86201 1.52864C2.98703 1.40361 3.1566 1.33337 3.33341 1.33337ZM6.00008 7.33337V5.33337L2.66675 8.00004L6.00008 10.6667V8.66671H10.0001V7.33337H6.00008Z" fill="white"/>
</svg>
