<svg width="227" height="180" viewBox="0 0 227 180" fill="none" xmlns="http://www.w3.org/2000/svg">
<path d="M222.698 35.0122L219.154 52.1776L216.873 49.9518L212.991 52.722L210.025 49.0371L203.374 53.8738L197.689 44.3671L191.349 48.0816L188.834 44.6152L180.783 49.1519L178.361 43.9634L184.005 16.6284L214.262 22.8761L222.698 35.0122Z" fill="#EBEBEB"/>
<path d="M214.262 22.876L222.698 35.0121L212.203 32.8456L214.262 22.876Z" fill="#DBDBDB"/>
<path d="M218.398 55.607L213.202 80.7903L172.446 72.3761L177.605 47.3965L180.027 52.5813L188.082 48.0446L190.593 51.511L196.937 47.8002L202.618 57.3068L209.273 52.4702L212.236 56.1514L216.121 53.3849L218.398 55.607Z" fill="#EBEBEB"/>
<path d="M160.066 52.6553L118.532 55.2255L115.232 1.91097L146.074 0L157.396 9.49928L160.066 52.6553Z" fill="#EBEBEB"/>
<path d="M146.074 0L157.396 9.49928L146.7 10.1622L146.074 0Z" fill="#DBDBDB"/>
<path d="M134.575 35.8751L134.412 34.6715C133.994 32.1791 134.675 29.3904 136.842 26.4758C138.797 23.8834 139.856 22.0317 139.738 19.9282C139.604 17.558 138.03 16.0618 135.101 16.1803C133.427 16.2672 131.819 16.8614 130.49 17.8839L129.212 15.0211C130.694 13.8175 133.286 12.9287 135.749 12.7991C141.093 12.5028 143.693 15.6655 143.897 19.1949C144.074 22.3539 142.437 24.7278 140.356 27.5017C138.445 30.0311 137.819 32.1161 138.09 34.4752L138.204 35.6825L134.575 35.8751ZM133.916 42.4339C133.82 40.7155 134.912 39.4415 136.538 39.3526C138.164 39.2637 139.349 40.4044 139.445 42.1265C139.534 43.7523 138.538 45.0633 136.819 45.1596C135.179 45.2522 133.994 44.0597 133.901 42.4339H133.916Z" fill="#DBDBDB"/>
<path d="M30.6866 26.805L26.5091 24.9126L25.9277 26.1903C25.8418 26.3729 25.7079 26.5286 25.5402 26.6409C25.3725 26.7531 25.1774 26.8175 24.9759 26.8273C24.7463 26.8348 24.5175 26.8571 24.2908 26.8939C24.0918 26.9235 23.8885 26.8984 23.7026 26.8215C23.5167 26.7445 23.3552 26.6185 23.2353 26.4569L22.4168 25.3126L18.6875 27.9864L19.5059 29.1308C19.6198 29.296 19.6868 29.4889 19.6998 29.6891C19.7129 29.8892 19.6715 30.0892 19.58 30.2678C19.4744 30.4714 19.3792 30.6803 19.2948 30.8936C19.2215 31.0817 19.0982 31.2463 18.9384 31.3696C18.7785 31.4929 18.5881 31.5704 18.3875 31.5936L16.9913 31.7306L17.4394 36.2969L18.843 36.1562C19.0443 36.1401 19.2462 36.1792 19.4269 36.2692C19.6077 36.3593 19.7605 36.4969 19.8689 36.6673C19.9281 36.7636 19.9911 36.8561 20.0578 36.9487C20.1244 37.0413 20.1911 37.1302 20.2614 37.2191C20.3892 37.3746 20.4714 37.5625 20.4989 37.7619C20.5263 37.9613 20.498 38.1644 20.417 38.3486L19.8318 39.6374L24.013 41.5336L24.5944 40.2485C24.6811 40.066 24.8159 39.9107 24.9842 39.7991C25.1526 39.6875 25.3481 39.6239 25.5499 39.6152C25.7769 39.6058 26.0032 39.5836 26.2277 39.5485C26.4267 39.519 26.63 39.544 26.8159 39.621C27.0018 39.698 27.1633 39.824 27.2831 39.9855L28.1016 41.1299L31.8346 38.456L31.0162 37.3117C30.8988 37.148 30.8297 36.9547 30.8166 36.7538C30.8035 36.5528 30.847 36.3522 30.9421 36.1747C31.0453 35.9722 31.138 35.7645 31.2199 35.5525C31.2911 35.3631 31.4137 35.1972 31.574 35.0735C31.7343 34.9499 31.9259 34.8734 32.1272 34.8526L33.5308 34.7119L33.079 30.1455L31.6754 30.2826C31.4754 30.3001 31.2744 30.262 31.0946 30.1725C30.9149 30.083 30.7634 29.9455 30.6569 29.7752C30.594 29.6789 30.531 29.5863 30.4644 29.4937C30.3977 29.4011 30.3311 29.3086 30.2607 29.2234C30.1337 29.066 30.0522 28.8769 30.0248 28.6765C29.9974 28.4762 30.0251 28.2722 30.1051 28.0864L30.6866 26.805ZM28.3164 31.0307C28.7495 31.635 28.9936 32.3542 29.0179 33.0973C29.0422 33.8404 28.8456 34.5741 28.4529 35.2054C28.0603 35.8368 27.4892 36.3375 26.8119 36.6443C26.1346 36.951 25.3816 37.0501 24.6481 36.9289C23.9145 36.8076 23.2334 36.4716 22.6908 35.9632C22.1482 35.4549 21.7686 34.7971 21.6 34.0729C21.4313 33.3488 21.4812 32.5909 21.7432 31.8952C22.0053 31.1994 22.4679 30.5969 23.0723 30.1641C23.8827 29.5837 24.8904 29.349 25.8738 29.5115C26.8572 29.674 27.7358 30.2205 28.3164 31.0307Z" fill="#EBEBEB"/>
<path d="M219.524 87.3931L216.739 89.0004L217.232 89.8521C217.305 89.9744 217.342 90.1152 217.337 90.2578C217.333 90.4003 217.287 90.5385 217.206 90.6558C217.121 90.7891 217.039 90.9261 216.965 91.0706C216.904 91.1983 216.808 91.306 216.688 91.3808C216.568 91.4556 216.429 91.4945 216.287 91.4928H215.31V94.711H216.295C216.436 94.7093 216.575 94.7482 216.695 94.823C216.816 94.8978 216.912 95.0055 216.973 95.1332C217.047 95.2777 217.128 95.4147 217.213 95.548C217.294 95.6653 217.34 95.8035 217.345 95.946C217.349 96.0886 217.313 96.2294 217.239 96.3517L216.747 97.2034L219.532 98.8107L220.028 97.9552C220.1 97.8339 220.204 97.735 220.329 97.6696C220.454 97.6042 220.595 97.5748 220.735 97.5849H221.209C221.35 97.5753 221.49 97.6048 221.615 97.6701C221.74 97.7355 221.844 97.8342 221.917 97.9552L222.413 98.8144L225.194 97.2071L224.702 96.3517C224.632 96.2288 224.597 96.0888 224.602 95.9475C224.608 95.8061 224.652 95.6691 224.731 95.5517C224.816 95.4184 224.898 95.2777 224.972 95.1369C225.033 95.0092 225.129 94.9015 225.249 94.8267C225.369 94.7519 225.508 94.713 225.65 94.7147H226.635V91.4965H225.642C225.501 91.4982 225.362 91.4593 225.242 91.3845C225.122 91.3097 225.025 91.202 224.965 91.0743C224.89 90.9335 224.809 90.7928 224.724 90.6595C224.645 90.5421 224.6 90.4051 224.595 90.2637C224.59 90.1224 224.624 89.9824 224.694 89.8595L225.187 89.0041L222.405 87.3968L221.909 88.2412C221.837 88.3625 221.733 88.4614 221.608 88.5268C221.483 88.5922 221.342 88.6216 221.202 88.6115H220.965H220.728C220.587 88.621 220.446 88.5914 220.32 88.5261C220.195 88.4608 220.09 88.3622 220.017 88.2412L219.524 87.3931ZM220.965 90.4669C221.487 90.4662 221.997 90.6203 222.431 90.9098C222.865 91.1992 223.204 91.611 223.404 92.093C223.604 92.5749 223.656 93.1054 223.555 93.6173C223.453 94.1291 223.202 94.5993 222.833 94.9683C222.464 95.3373 221.994 95.5885 221.482 95.6901C220.97 95.7917 220.44 95.7392 219.958 95.5392C219.476 95.3391 219.064 95.0006 218.775 94.5664C218.485 94.1322 218.331 93.6219 218.332 93.1C218.331 92.7539 218.399 92.4111 218.531 92.0913C218.663 91.7714 218.857 91.4806 219.102 91.2357C219.346 90.9908 219.637 90.7966 219.956 90.664C220.276 90.5314 220.619 90.4632 220.965 90.4632V90.4669Z" fill="#EBEBEB"/>
<path d="M39.1378 13.1214L36.5861 15.0768L37.175 15.8582C37.2628 15.9695 37.3168 16.1038 37.3306 16.2449C37.3444 16.386 37.3174 16.5282 37.2527 16.6544C37.1819 16.7986 37.12 16.947 37.0676 17.0988C37.0219 17.2326 36.9398 17.3509 36.8306 17.4406C36.7213 17.5302 36.5892 17.5876 36.4491 17.6062L35.4714 17.7321L35.8862 20.9208L36.8639 20.7949C37.0062 20.775 37.1512 20.7958 37.2823 20.8547C37.4133 20.9137 37.525 21.0085 37.6046 21.1282C37.6937 21.257 37.7902 21.3806 37.8934 21.4985C37.9888 21.6034 38.0521 21.7335 38.0758 21.8734C38.0994 22.0132 38.0824 22.1569 38.0268 22.2873L37.6564 23.1984L40.6192 24.4316L40.9895 23.5206C41.0446 23.3899 41.1352 23.2772 41.2511 23.1954C41.3669 23.1136 41.5034 23.0659 41.645 23.0576L41.882 23.0317L42.1153 22.9947C42.2524 22.9689 42.3939 22.9811 42.5245 23.0301C42.6551 23.079 42.7697 23.1629 42.856 23.2724L43.4597 24.0613L46.0113 22.1059L45.4151 21.3244C45.329 21.2115 45.2761 21.0769 45.2623 20.9355C45.2486 20.7942 45.2746 20.6519 45.3373 20.5245C45.4075 20.3813 45.4693 20.2342 45.5225 20.0838C45.5681 19.95 45.6502 19.8317 45.7595 19.742C45.8687 19.6524 46.0009 19.595 46.141 19.5764L47.1187 19.4505L46.7039 16.2619L45.7262 16.3878C45.5842 16.408 45.4394 16.3878 45.3084 16.3295C45.1774 16.2712 45.0655 16.1772 44.9855 16.0582C44.8929 15.9248 44.7966 15.7989 44.6929 15.6878C44.6066 15.5807 44.5508 15.4522 44.5313 15.3161C44.5117 15.1799 44.5292 15.0409 44.5818 14.9138L44.9522 14.0028L41.9894 12.7695L41.6191 13.6806C41.5633 13.8108 41.4724 13.9229 41.3567 14.0047C41.241 14.0864 41.1049 14.1344 40.9636 14.1435L40.7265 14.1657L40.508 14.1731C40.371 14.199 40.2295 14.1867 40.0989 14.1378C39.9683 14.0888 39.8536 14.005 39.7674 13.8954L39.1378 13.1214ZM40.9636 15.9841C41.4794 15.9178 42.0034 16.0057 42.4694 16.2369C42.9353 16.468 43.3224 16.8319 43.5817 17.2828C43.8411 17.7336 43.9611 18.2512 43.9266 18.7702C43.8922 19.2892 43.7048 19.7863 43.3881 20.1989C43.0714 20.6115 42.6397 20.9211 42.1472 21.0886C41.6548 21.2561 41.1238 21.274 40.6213 21.1401C40.1187 21.0062 39.667 20.7264 39.3232 20.336C38.9795 19.9457 38.759 19.4623 38.6897 18.9468C38.6434 18.6028 38.6656 18.2531 38.755 17.9177C38.8443 17.5823 38.9991 17.2679 39.2105 16.9926C39.4218 16.7172 39.6855 16.4864 39.9863 16.3133C40.2872 16.1402 40.6193 16.0284 40.9636 15.9841Z" fill="#EBEBEB"/>
<path d="M20.0726 96.678C20.2117 93.0979 20.1622 89.5129 19.9244 85.938C19.3945 78.5561 18.2687 71.2291 16.558 64.0286C15.6173 59.977 14.4619 55.9921 13.2546 52.0109C13.2175 51.8887 13.0249 51.9221 13.0583 52.048C16.7876 66.084 19.8466 80.5644 19.6356 95.1559C19.5763 99.2296 19.1023 103.248 18.7171 107.307C18.7171 107.414 18.8838 107.459 18.9097 107.348C19.6763 103.863 19.9281 100.226 20.0726 96.678Z" fill="#EBEBEB"/>
<path d="M13.0583 52.0366C13.0583 52.0366 7.41425 66.3689 8.67712 69.7242C9.93998 73.0795 12.5472 73.7979 12.5472 73.7979C12.5472 73.7979 9.0919 78.7309 11.5065 83.3565C13.9212 87.9821 19.2837 87.7636 19.6541 93.0076C19.643 93.0335 19.9392 71.1056 13.0583 52.0366Z" fill="#EBEBEB"/>
<path d="M19.0282 83.9786C19.0373 83.9548 19.0373 83.9284 19.0282 83.9046C18.2874 74.1198 16.4514 64.4489 13.5545 55.0734C13.5545 55.0475 13.499 55.0549 13.5064 55.0734C14.6248 59.2706 15.6124 63.4851 16.4691 67.7169C15.7104 66.9981 14.7834 66.4811 13.773 66.2133C13.773 66.2133 13.7434 66.2355 13.773 66.243C14.8344 66.6319 15.7887 67.2664 16.558 68.0947C16.721 68.9279 16.8839 69.7575 17.0358 70.5908C15.7729 69.1798 14.0249 68.4798 12.2732 67.8132C12.2692 67.8149 12.2658 67.8178 12.2634 67.8214C12.2611 67.825 12.2598 67.8292 12.2598 67.8336C12.2598 67.8379 12.2611 67.8421 12.2634 67.8457C12.2658 67.8494 12.2692 67.8522 12.2732 67.8539C14.0989 68.5946 15.9136 69.5501 17.1506 71.1241C17.5802 73.5017 17.9579 75.8879 18.2838 78.2828C17.372 77.3275 16.2026 76.6572 14.9174 76.3533C14.8767 76.3533 14.8544 76.4014 14.8952 76.4125C16.2154 76.8013 17.394 77.5656 18.2875 78.6124H18.3097C18.4208 79.4518 18.527 80.295 18.6282 81.1418C17.9228 80.5449 17.1264 80.0648 16.2691 79.7197C16.2469 79.7197 16.2321 79.7456 16.2691 79.753C17.144 80.132 17.9451 80.6623 18.6356 81.3196C18.6356 81.3196 18.6542 81.3196 18.6653 81.3196C18.7578 82.1232 18.8504 82.9269 18.9319 83.7305C17.6602 82.1932 16.0098 81.0137 14.1434 80.3085C14.1355 80.3085 14.128 80.3117 14.1224 80.3172C14.1169 80.3228 14.1138 80.3303 14.1138 80.3382C14.1138 80.346 14.1169 80.3536 14.1224 80.3591C14.128 80.3647 14.1355 80.3678 14.1434 80.3678C15.9864 81.1801 17.6052 82.4267 18.8615 84.0009C18.8754 84.0181 18.894 84.0309 18.9151 84.0375C18.9363 84.0441 18.9589 84.0442 18.9801 84.0379C19.1023 85.2711 19.2134 86.5044 19.3023 87.7413C19.3023 87.7598 19.3319 87.7598 19.3319 87.7413C19.2356 86.4994 19.1344 85.2452 19.0282 83.9786Z" fill="white"/>
<path d="M14.4915 64.8023C13.4693 64.1662 12.3017 63.8016 11.0992 63.7432C11.0933 63.7432 11.0876 63.7455 11.0834 63.7497C11.0793 63.7538 11.0769 63.7595 11.0769 63.7654C11.0769 63.7713 11.0793 63.7769 11.0834 63.7811C11.0876 63.7853 11.0933 63.7876 11.0992 63.7876C12.2618 64.0081 13.39 64.3817 14.4545 64.8986C14.4989 64.9097 14.5322 64.832 14.4915 64.8023Z" fill="white"/>
<path d="M15.1766 79.9753C14.391 79.5244 13.526 79.2289 12.6287 79.105C12.5991 79.105 12.5954 79.1457 12.6287 79.1531C13.5049 79.3289 14.3524 79.6255 15.147 80.0345C15.1803 80.0531 15.21 79.9938 15.1766 79.9753Z" fill="white"/>
<path d="M34.9159 69.9725C32.5282 71.6229 30.3354 73.5387 28.3793 75.6832C26.3621 77.9537 24.8061 80.5952 23.7982 83.4604C21.6531 89.4296 20.4997 95.7097 20.3836 102.052C20.3117 105.564 20.6485 109.072 21.3873 112.506C21.3933 112.531 21.4086 112.553 21.4302 112.567C21.4517 112.581 21.4778 112.586 21.503 112.581C21.5283 112.576 21.5507 112.562 21.5657 112.541C21.5807 112.521 21.5871 112.495 21.5836 112.469C20.6643 106.409 20.6993 100.242 21.6873 94.1929C22.6575 88.2674 24.1797 81.816 27.9497 76.9979C30.0014 74.3722 32.5605 72.3093 35.0899 70.1762C35.2233 70.0577 35.0529 69.8762 34.9159 69.9725Z" fill="#EBEBEB"/>
<path d="M21.2132 97.7777C22.5723 95.5795 24.1695 93.5377 25.9758 91.6893C28.8015 88.8636 31.1791 86.8563 31.5495 84.9898C31.9198 83.1233 28.7201 81.7456 28.7201 81.7456C28.7201 81.7456 32.6272 82.4493 33.6975 80.8086C34.7678 79.168 35.2825 69.665 35.2825 69.665C35.2825 69.665 28.172 74.7424 24.8574 81.8604C21.5428 88.9784 21.2132 97.7777 21.2132 97.7777Z" fill="#EBEBEB"/>
<path d="M32.7309 78.5792C32.2626 78.5095 31.788 78.4933 31.3162 78.531C31.2606 78.531 31.2643 78.6273 31.3162 78.631C31.7828 78.631 32.2531 78.6088 32.7198 78.631C32.7251 78.6297 32.7299 78.6268 32.7337 78.6229C32.7376 78.6189 32.7402 78.6139 32.7413 78.6085C32.7425 78.6032 32.7421 78.5976 32.7403 78.5924C32.7384 78.5872 32.7352 78.5826 32.7309 78.5792Z" fill="white"/>
<path d="M27.6238 87.7969C26.873 87.8122 26.1307 87.9601 25.4314 88.2339C25.4314 88.2339 25.4314 88.2709 25.4314 88.2672C26.1721 88.0932 26.8869 88.0228 27.6201 87.8969C27.6297 87.8927 27.6379 87.8859 27.6438 87.8772C27.6497 87.8686 27.653 87.8585 27.6534 87.848C27.6538 87.8376 27.6512 87.8273 27.646 87.8182C27.6407 87.8092 27.6331 87.8018 27.6238 87.7969Z" fill="white"/>
<path d="M26.0906 84.612C25.7789 84.6095 25.4676 84.6368 25.1611 84.6934C25.1554 84.6956 25.1505 84.6993 25.147 84.7043C25.1436 84.7093 25.1417 84.7152 25.1417 84.7212C25.1417 84.7273 25.1436 84.7332 25.147 84.7381C25.1505 84.7431 25.1554 84.7469 25.1611 84.749C25.4715 84.7669 25.7829 84.7533 26.0906 84.7083C26.1034 84.7083 26.1156 84.7032 26.1247 84.6942C26.1337 84.6851 26.1388 84.6729 26.1388 84.6601C26.1388 84.6473 26.1337 84.6351 26.1247 84.6261C26.1156 84.617 26.1034 84.612 26.0906 84.612Z" fill="white"/>
<path d="M0.366636 80.0531C2.68098 80.8377 4.89873 81.8826 6.97725 83.1677C9.1339 84.5381 11.0041 86.314 12.4842 88.3969C15.5984 92.7319 17.9828 97.5469 19.543 102.651C20.4131 105.478 20.95 108.396 21.1428 111.347C21.1388 111.366 21.1283 111.383 21.1131 111.396C21.098 111.408 21.079 111.415 21.0595 111.415C21.04 111.415 21.0211 111.408 21.0059 111.396C20.9907 111.383 20.9802 111.366 20.9762 111.347C20.3225 106.23 18.8704 101.248 16.6728 96.5815C14.5137 92.0078 11.7917 87.1415 7.62905 84.1121C5.36256 82.464 2.8146 81.3826 0.27405 80.242C0.140727 80.1975 0.233312 80.0087 0.366636 80.0531Z" fill="#EBEBEB"/>
<path d="M17.8838 99.3889C16.2749 97.925 14.5101 96.6421 12.6213 95.5632C9.68075 93.93 7.29204 92.856 6.56247 91.4302C5.83289 90.0044 8.10309 88.1527 8.10309 88.1527C8.10309 88.1527 5.10332 89.6341 3.85897 88.5415C2.61462 87.449 0 79.894 0 79.894C0 79.894 6.92911 82.3568 11.251 87.3527C15.5729 92.3487 17.8838 99.3889 17.8838 99.3889Z" fill="#EBEBEB"/>
<path d="M12.1324 92.4338C11.4512 92.3863 10.7671 92.4705 10.1178 92.6819C10.1178 92.6819 10.1178 92.7152 10.1178 92.7115C10.7802 92.5979 11.4496 92.5286 12.1213 92.5041C12.1694 92.5041 12.1806 92.4375 12.1324 92.4338Z" fill="white"/>
<path d="M6.08843 84.5084C5.77766 84.483 5.46488 84.5004 5.15887 84.5602C5.12554 84.5602 5.13665 84.6195 5.15887 84.6158C5.46625 84.5824 5.76623 84.5935 6.06991 84.5861C6.07934 84.5865 6.08861 84.5836 6.09614 84.5779C6.10366 84.5722 6.10897 84.564 6.11116 84.5549C6.11334 84.5457 6.11227 84.536 6.10813 84.5275C6.10398 84.5191 6.09702 84.5123 6.08843 84.5084Z" fill="white"/>
<path d="M26.8202 120.898H11.1806L13.4101 104.562L13.9804 100.374H24.0204L24.5907 104.562L26.8202 120.898Z" fill="#DBDBDB"/>
<path d="M24.5907 104.562H13.4101L13.9804 100.374H24.0204L24.5907 104.562Z" fill="#C7C7C7"/>
<path d="M25.4536 98.9219H12.5435V102.47H25.4536V98.9219Z" fill="#DBDBDB"/>
<path d="M1.23694 120.899L29.3867 120.81L57.5364 120.776L113.836 120.713L170.135 120.776L198.285 120.81L226.435 120.899L198.285 120.991L170.135 121.021L113.836 121.084L57.5364 121.021L29.3867 120.987L1.23694 120.899Z" fill="#263238"/>
<path d="M114.577 148.5C173.225 148.5 220.769 143.29 220.769 136.864C220.769 130.437 173.225 125.228 114.577 125.228C55.9283 125.228 8.38455 130.437 8.38455 136.864C8.38455 143.29 55.9283 148.5 114.577 148.5Z" fill="#EBEBEB"/>
<path d="M89.8562 134.938C88.9933 135.231 64.2507 135.309 63.3026 134.724C62.9323 134.501 62.7212 130.898 62.562 126.535C62.5286 125.595 62.5027 124.621 62.4805 123.636L60.5066 110.436L77.0498 110.329L78.6089 123.532L78.5459 126.435C78.5459 126.435 88.0341 130.639 89.0044 131.402C89.9747 132.164 90.7191 134.646 89.8562 134.938Z" fill="#EB9481"/>
<path d="M89.8562 134.938C88.9933 135.231 64.2507 135.309 63.3026 134.723C62.8656 134.449 62.6286 129.187 62.4953 123.635L78.5904 123.532L78.5274 126.435C78.5274 126.435 88.0156 130.639 88.9859 131.402C89.9562 132.164 90.7191 134.646 89.8562 134.938Z" fill="white"/>
<path d="M89.8562 134.938C88.9933 135.231 64.2507 135.308 63.3027 134.723C62.9323 134.501 62.7212 130.898 62.562 126.535L78.5126 126.435C78.5126 126.435 88.0008 130.638 88.9711 131.401C89.9414 132.164 90.7191 134.646 89.8562 134.938Z" fill="#A6A6A6"/>
<path d="M89.497 133.949C85.3491 133.86 68.6097 133.901 64.5026 134.131C64.4692 134.131 64.4692 134.153 64.5026 134.157C68.6134 134.331 85.3528 134.157 89.497 134.016C89.5858 134.012 89.5858 133.949 89.497 133.949Z" fill="#263238"/>
<path d="M87.3897 130.516C86.9285 130.506 86.4701 130.592 86.0437 130.768C85.6172 130.943 85.2319 131.206 84.9121 131.539C84.3294 132.132 84.0001 132.929 83.9937 133.761C83.9937 133.787 84.0381 133.787 84.0418 133.761C84.1795 132.941 84.5785 132.188 85.1792 131.614C85.7799 131.04 86.5501 130.676 87.3749 130.576C87.3828 130.578 87.3911 130.576 87.398 130.572C87.405 130.568 87.41 130.561 87.4119 130.554C87.4139 130.546 87.4127 130.537 87.4085 130.53C87.4043 130.523 87.3976 130.518 87.3897 130.516Z" fill="#263238"/>
<path d="M80.1347 126.843C78.4756 126.824 76.5535 127.417 75.5239 128.78C75.4869 128.831 75.561 128.887 75.6091 128.861C77.0587 128.096 78.5857 127.488 80.1643 127.046C80.1887 127.04 80.2099 127.024 80.2237 127.003C80.2376 126.982 80.2432 126.956 80.2396 126.931C80.2359 126.906 80.2233 126.884 80.204 126.867C80.1846 126.851 80.16 126.842 80.1347 126.843Z" fill="#263238"/>
<path d="M81.4235 127.335C79.7607 127.335 77.8386 127.913 76.8127 129.272C76.772 129.328 76.8461 129.383 76.8979 129.358C78.3454 128.59 79.8713 127.98 81.4494 127.539C81.4735 127.533 81.4944 127.517 81.5083 127.497C81.5221 127.476 81.528 127.451 81.5249 127.426C81.5217 127.401 81.5097 127.378 81.4911 127.362C81.4725 127.345 81.4485 127.336 81.4235 127.335Z" fill="#263238"/>
<path d="M82.7049 127.832C81.0458 127.832 79.1237 128.406 78.0941 129.768C78.0571 129.82 78.1312 129.876 78.1793 129.85C79.6289 129.085 81.1559 128.476 82.7345 128.035C82.7589 128.029 82.78 128.013 82.7939 127.992C82.8078 127.971 82.8134 127.945 82.8098 127.92C82.8061 127.895 82.7934 127.872 82.7741 127.856C82.7548 127.84 82.7302 127.831 82.7049 127.832Z" fill="#263238"/>
<path d="M83.99 128.328C82.3271 128.309 80.405 128.902 79.3792 130.264C79.3385 130.316 79.4162 130.372 79.4644 130.346C80.9137 129.58 82.4408 128.972 84.0196 128.531C84.044 128.525 84.0651 128.509 84.079 128.488C84.0928 128.467 84.0985 128.441 84.0948 128.416C84.0912 128.391 84.0785 128.368 84.0592 128.352C84.0399 128.336 84.0153 128.327 83.99 128.328Z" fill="#263238"/>
<path d="M65.5469 130.187C63.6952 130.187 63.6952 133.094 65.5469 133.083C67.3986 133.072 67.4135 130.176 65.5469 130.187Z" fill="#263238"/>
<path d="M81.916 122.406C81.0754 121.709 80.0162 122.406 79.5014 123.12C78.6445 124.384 78.1338 125.85 78.0201 127.372C78.0201 127.405 78.046 127.42 78.0719 127.42C78.0785 127.451 78.0925 127.481 78.1127 127.506C78.133 127.53 78.1589 127.55 78.1883 127.563C78.2177 127.575 78.2497 127.581 78.2817 127.578C78.3136 127.576 78.3445 127.566 78.3719 127.55C79.5496 126.731 80.9124 125.998 81.8049 124.839C82.3123 124.165 82.7271 123.054 81.916 122.406ZM79.894 125.939C79.3237 126.357 78.7348 126.746 78.1793 127.187C78.4756 126.357 78.7311 125.52 79.1089 124.72C79.2834 124.337 79.4838 123.966 79.7088 123.609C80.0792 123.057 81.6938 121.665 81.8642 123.468C81.9605 124.457 80.5717 125.442 79.894 125.939Z" fill="#263238"/>
<path d="M73.887 128.002C75.3314 128.217 76.8238 127.802 78.2423 127.576C78.2731 127.568 78.3015 127.553 78.3254 127.532C78.3493 127.511 78.368 127.485 78.3798 127.455C78.3917 127.426 78.3965 127.394 78.3938 127.362C78.3912 127.33 78.3811 127.3 78.3645 127.272C78.3698 127.268 78.3742 127.263 78.3772 127.257C78.3802 127.251 78.3818 127.244 78.3818 127.237C78.3818 127.23 78.3802 127.224 78.3772 127.218C78.3742 127.212 78.3698 127.206 78.3645 127.202C77.2248 126.186 75.8377 125.487 74.3425 125.176C73.4685 125.01 72.2316 125.25 72.1205 126.335C71.9872 127.358 73.0426 127.869 73.887 128.002ZM72.8797 127.061C71.7687 125.639 73.8907 125.517 74.5277 125.665C74.941 125.769 75.3468 125.9 75.7424 126.058C76.5524 126.394 77.3448 126.771 78.1163 127.187C77.4127 127.258 76.7201 127.384 76.0202 127.48C75.1832 127.591 73.5019 127.843 72.8797 127.061Z" fill="#263238"/>
<path d="M36.1825 49.4297C36.1825 49.4297 55.3921 82.1087 55.9069 84.4048C56.6957 87.9305 60.8769 122.746 60.8769 122.746L80.8754 122.376C80.8754 122.376 77.4312 91.6784 74.1685 81.5643C71.8205 74.2797 54.8662 50.1185 54.8662 50.1185L36.1825 49.4297Z" fill="#37474F"/>
<path d="M79.057 119.325C76.1869 119.303 66.0135 119.188 62.1916 119.543C62.162 119.543 62.1657 119.595 62.1916 119.599C63.5063 119.788 76.1831 119.495 79.0533 119.403C79.0593 119.405 79.0657 119.406 79.0721 119.405C79.0784 119.404 79.0844 119.402 79.0898 119.398C79.0951 119.395 79.0995 119.39 79.1026 119.384C79.1057 119.379 79.1075 119.373 79.1078 119.366C79.1081 119.36 79.1069 119.354 79.1043 119.348C79.1017 119.342 79.0978 119.337 79.0929 119.333C79.0879 119.329 79.0821 119.326 79.0759 119.325C79.0696 119.323 79.0632 119.323 79.057 119.325Z" fill="#263238"/>
<path d="M39.46 52.4296C40.7192 54.4035 42.0524 56.3367 43.3338 58.2958C44.6152 60.2549 45.904 62.214 47.1742 64.1694C49.7074 68.1197 52.1763 72.096 54.5811 76.0982C55.7547 77.9533 56.7587 79.9104 57.5809 81.9459C58.3314 83.9817 58.8954 86.0816 59.2659 88.2195C59.6585 90.3638 59.9177 92.5303 60.1585 94.6968C60.4053 97.0003 60.6633 99.305 60.9325 101.611C61.4584 106.329 61.9855 111.047 62.5138 115.766C62.5768 116.343 62.6397 116.921 62.699 117.502C62.699 117.588 62.5546 117.602 62.5435 117.502C61.9546 112.818 61.4658 108.114 60.9325 103.429C60.6658 101.091 60.4004 98.7545 60.1362 96.4188C59.8881 94.2449 59.6511 92.0673 59.3141 89.9082C59.0048 87.7771 58.5344 85.6724 57.9068 83.6124C57.2153 81.4794 56.2887 79.4299 55.144 77.5018C52.8294 73.5058 50.3777 69.5801 47.926 65.6508C45.4744 61.7215 42.956 57.7588 40.3711 53.8776C40.0526 53.3999 39.7304 52.9221 39.3971 52.4518C39.3711 52.4259 39.4378 52.3925 39.46 52.4296Z" fill="#263238"/>
<path d="M42.4783 136.864C41.5672 136.808 18.0357 127.276 17.3839 126.372C17.3548 126.319 17.342 126.259 17.3468 126.198C17.3468 125.387 18.9801 122.558 20.3429 118.839C20.4281 118.602 21.0355 117.499 21.8761 116.014C24.213 111.944 28.2868 104.933 28.2868 104.933L43.6671 111.044L36.3047 122.061L35.1603 124.728C35.1603 124.728 42.3783 132.19 42.9857 133.246C43.593 134.301 43.3856 136.916 42.4783 136.864Z" fill="#EB9481"/>
<path d="M42.4783 136.864C41.5672 136.808 18.0357 127.276 17.3839 126.372C17.3548 126.319 17.342 126.258 17.3468 126.198C17.3468 125.387 18.9801 122.558 20.3429 118.839C20.4281 118.602 21.0355 117.499 21.8761 116.014L36.3195 122.061L35.1751 124.728C35.1751 124.728 42.3931 132.19 43.0005 133.246C43.6078 134.301 43.3856 136.916 42.4783 136.864Z" fill="white"/>
<path d="M42.4783 136.864C41.5673 136.808 18.0357 127.276 17.3839 126.372C17.1321 126.028 18.1838 122.817 20.3466 118.839L35.1603 124.732C35.1603 124.732 42.3783 132.186 42.9894 133.249C43.6004 134.312 43.3856 136.916 42.4783 136.864Z" fill="#A6A6A6"/>
<path d="M42.5153 135.812C38.7045 134.175 23.1723 127.931 19.28 126.605C19.2467 126.605 19.2393 126.605 19.28 126.628C23.0242 128.331 38.6045 134.449 42.5005 135.886C42.5746 135.905 42.5968 135.846 42.5153 135.812Z" fill="#263238"/>
<path d="M41.8487 131.839C41.4261 131.653 40.9696 131.557 40.5081 131.557C40.0465 131.557 39.59 131.653 39.1674 131.839C38.4076 132.171 37.8054 132.784 37.4861 133.55C37.4861 133.572 37.5194 133.59 37.5305 133.568C37.9671 132.858 38.6221 132.309 39.3973 132.002C40.1724 131.696 41.0261 131.649 41.8302 131.868C41.8364 131.867 41.8418 131.863 41.8452 131.857C41.8486 131.852 41.8499 131.845 41.8487 131.839Z" fill="#263238"/>
<path d="M36.5047 125.713C34.9752 125.072 32.9679 124.902 31.5051 125.78C31.4495 125.813 31.5051 125.891 31.5532 125.887C33.1839 125.722 34.8276 125.73 36.4565 125.913C36.4816 125.916 36.5068 125.909 36.5274 125.895C36.548 125.88 36.5627 125.859 36.5686 125.834C36.5745 125.81 36.5712 125.784 36.5595 125.762C36.5477 125.739 36.5282 125.722 36.5047 125.713Z" fill="#263238"/>
<path d="M37.5083 126.654C35.9788 126.013 33.9715 125.843 32.5087 126.721C32.4531 126.754 32.5087 126.832 32.5568 126.828C34.1875 126.661 35.8314 126.669 37.4602 126.854C37.4852 126.857 37.5104 126.85 37.531 126.836C37.5517 126.821 37.5663 126.8 37.5722 126.775C37.5781 126.751 37.5749 126.725 37.5631 126.702C37.5513 126.68 37.5319 126.663 37.5083 126.654Z" fill="#263238"/>
<path d="M38.5156 127.594C36.9824 126.954 34.9752 126.783 33.516 127.661C33.4567 127.694 33.516 127.772 33.5604 127.768C35.1911 127.601 36.835 127.61 38.4638 127.794C38.4894 127.799 38.5156 127.793 38.5374 127.779C38.5591 127.765 38.5748 127.743 38.5813 127.718C38.5878 127.693 38.5847 127.666 38.5725 127.643C38.5604 127.621 38.5401 127.603 38.5156 127.594Z" fill="#263238"/>
<path d="M39.5193 128.535C37.986 127.895 35.9825 127.724 34.5196 128.598C34.4604 128.635 34.5196 128.713 34.5641 128.709C36.1947 128.542 37.8386 128.551 39.4674 128.735C39.493 128.74 39.5192 128.734 39.541 128.72C39.5627 128.706 39.5784 128.684 39.5849 128.659C39.5914 128.634 39.5883 128.607 39.5761 128.584C39.564 128.561 39.5437 128.544 39.5193 128.535Z" fill="#263238"/>
<path d="M21.7243 123.339C19.9948 122.65 18.9208 125.343 20.6577 126.032C22.3946 126.721 23.4723 124.028 21.7243 123.339Z" fill="#263238"/>
<path d="M39.8192 122.269C39.2971 121.31 38.0638 121.547 37.312 122.025C36.0456 122.873 35.024 124.039 34.3493 125.406C34.3463 125.412 34.3447 125.418 34.3447 125.425C34.3446 125.432 34.3461 125.438 34.3489 125.444C34.3518 125.45 34.3559 125.456 34.3611 125.46C34.3663 125.464 34.3724 125.467 34.3789 125.469C34.3789 125.591 34.4604 125.735 34.6048 125.706C36.0084 125.384 37.5453 125.217 38.8045 124.476C39.5267 124.047 40.3118 123.176 39.8192 122.269ZM36.6158 124.784C35.9307 124.958 35.2418 125.098 34.5641 125.298C35.1247 124.623 35.7192 123.977 36.3454 123.361C36.6537 123.068 36.9816 122.796 37.3268 122.547C37.8638 122.176 39.8933 121.491 39.3748 123.228C39.0897 124.187 37.4342 124.576 36.6158 124.784Z" fill="#263238"/>
<path d="M30.2755 124.443C31.5347 125.184 33.0716 125.358 34.4715 125.684C34.6159 125.717 34.7122 125.572 34.7011 125.447C34.708 125.446 34.7147 125.443 34.7204 125.439C34.7261 125.435 34.7306 125.43 34.7336 125.423C34.7366 125.417 34.7379 125.41 34.7374 125.403C34.7369 125.396 34.7346 125.389 34.7307 125.384C34.0571 124.014 33.0354 122.845 31.768 121.995C31.0273 121.514 29.7867 121.273 29.2608 122.228C28.7349 123.184 29.5385 124.01 30.2755 124.443ZM29.6978 123.191C29.183 121.454 31.2088 122.143 31.7458 122.517C32.0906 122.767 32.4173 123.04 32.7235 123.336C33.3485 123.952 33.9418 124.6 34.5011 125.276C33.8234 125.076 33.1346 124.932 32.4494 124.758C31.6199 124.535 29.9792 124.165 29.6978 123.191Z" fill="#263238"/>
<path d="M37.5009 121.447L20.2837 114.495C20.2837 114.495 41.6302 83.1087 41.7858 80.7718C41.9265 78.7053 32.5494 60.6993 32.1828 55.4515C31.7828 49.7853 34.5085 45.4041 37.5083 42.6821L55.2662 50.2334C55.2662 50.2334 53.3923 53.2295 50.4518 54.8997C50.4518 54.8997 59.5585 75.713 59.04 82.1125C58.5215 88.512 37.5009 121.447 37.5009 121.447Z" fill="#37474F"/>
<path d="M38.2638 118.173C35.7751 117.102 36.5047 117.373 34.0011 116.321C32.779 115.81 24.7426 112.466 23.5056 112.188C23.4797 112.188 23.4612 112.225 23.4871 112.24C24.5574 112.895 32.6605 116.099 33.8938 116.588C36.4158 117.58 35.701 117.269 38.2342 118.232C38.238 118.237 38.243 118.241 38.2487 118.244C38.2545 118.246 38.2608 118.247 38.2671 118.247C38.2734 118.246 38.2794 118.244 38.2847 118.24C38.2899 118.237 38.2941 118.232 38.2969 118.226C38.2997 118.221 38.3011 118.214 38.3008 118.208C38.3005 118.202 38.2986 118.196 38.2953 118.19C38.292 118.185 38.2873 118.18 38.2818 118.177C38.2763 118.174 38.2701 118.173 38.2638 118.173Z" fill="#263238"/>
<path d="M53.3627 54.5182C51.5139 54.9492 49.705 55.5364 47.9557 56.2736C47.9486 56.2761 47.9421 56.2799 47.9365 56.2848C47.9309 56.2898 47.9264 56.2958 47.9231 56.3025C47.9198 56.3092 47.9179 56.3165 47.9175 56.3239C47.917 56.3313 47.918 56.3388 47.9205 56.3459C47.9229 56.3529 47.9267 56.3594 47.9317 56.365C47.9366 56.3706 47.9426 56.3751 47.9493 56.3784C47.956 56.3817 47.9633 56.3836 47.9707 56.384C47.9782 56.3845 47.9856 56.3835 47.9927 56.381C49.8074 55.8515 51.6517 55.3552 53.4367 54.7293C53.5738 54.6812 53.5034 54.4886 53.3627 54.5182Z" fill="#263238"/>
<path d="M51.248 53.7998C51.0754 54.1067 50.9233 54.4246 50.7925 54.7516C50.6646 54.9997 50.5855 55.2699 50.5592 55.5478C50.5592 55.6033 50.6332 55.6145 50.6666 55.5811C50.8524 55.3589 51.0023 55.109 51.111 54.8404C51.2628 54.5479 51.4184 54.259 51.5628 53.959C51.6628 53.7405 51.3628 53.5998 51.248 53.7998Z" fill="#263238"/>
<path d="M51.4702 52.1186C51.5813 51.8445 51.6887 51.5741 51.8035 51.3001C51.9183 51.026 52.0628 50.7446 52.1739 50.4557C52.1739 50.4113 52.2627 50.4557 52.2442 50.489C52.1331 50.7631 52.0628 51.052 51.9776 51.3334C51.8924 51.6149 51.7961 51.8963 51.7035 52.1778C51.5295 52.7 51.3332 53.2185 51.0925 53.7258C51.3839 53.7404 51.6749 53.6898 51.9443 53.5777C52.2194 53.4016 52.431 53.142 52.5479 52.837C52.7035 52.5333 52.8479 52.2222 53.0071 51.9186C53.2032 51.5902 53.3681 51.2443 53.4997 50.8853C53.4997 50.8409 53.5886 50.8853 53.5701 50.9186C53.3286 51.6777 53.0122 52.4109 52.6257 53.1074C52.459 53.3777 52.3294 53.6629 52.0257 53.7666C51.697 53.8585 51.353 53.8824 51.0147 53.8369C50.9702 53.8369 50.9184 53.8369 50.9332 53.7703C51.0849 53.2112 51.2641 52.6599 51.4702 52.1186Z" fill="#263238"/>
<path d="M50.7147 55.5776C51.348 56.9145 51.9035 58.2478 52.4923 59.581C53.0812 60.9142 53.6034 62.203 54.133 63.5288C55.1921 66.2027 56.1402 68.9284 56.9735 71.6764C57.3846 73.0392 57.766 74.4132 58.1067 75.7983C58.482 77.179 58.7568 78.585 58.9289 80.0054C59.0775 81.4234 58.9518 82.8568 58.5586 84.2273C58.1501 85.582 57.626 86.8991 56.992 88.164C56.6031 88.964 56.4735 88.8566 56.6587 88.4529C57.1883 87.3048 58.5771 83.8273 58.4771 80.9053C58.3961 79.5064 58.1803 78.1186 57.8327 76.7612C57.5093 75.3613 57.1451 73.9725 56.7402 72.5948C55.9513 69.8765 55.0144 67.2137 54.0515 64.5547C53.5108 63.0733 52.9405 61.5919 52.385 60.1106C51.8294 58.6292 51.2739 57.2664 50.6517 55.6294C50.6332 55.5628 50.6962 55.5369 50.7147 55.5776Z" fill="#263238"/>
<path d="M37.6453 51.1596C37.9527 51.0448 38.386 51.2336 38.6971 51.2855C39.1 51.3539 39.5071 51.3947 39.9155 51.4077C40.3197 51.4219 40.7243 51.4083 41.1266 51.3669C41.5317 51.3565 41.9287 51.2512 42.2857 51.0596C42.8716 50.6328 43.3737 50.1018 43.7671 49.493C44.2358 48.871 44.6229 48.1914 44.9189 47.4709C44.9189 47.4265 44.9966 47.471 44.9818 47.5006C44.8522 47.9117 44.7559 48.3264 44.6115 48.7301C44.4518 49.1094 44.2611 49.4748 44.0411 49.8226C43.6846 50.5225 43.1573 51.1212 42.5079 51.5632C41.7932 51.9706 40.8747 51.9336 40.0785 51.9002C39.6167 51.8733 39.1575 51.8127 38.7045 51.7188C38.3786 51.6484 37.8305 51.5966 37.6231 51.3114C37.6134 51.3005 37.6061 51.2876 37.6019 51.2736C37.5977 51.2595 37.5966 51.2448 37.5987 51.2303C37.6008 51.2158 37.6061 51.202 37.6142 51.1897C37.6222 51.1775 37.6329 51.1672 37.6453 51.1596Z" fill="#263238"/>
<path d="M25.1981 111.203C28.0275 106.917 30.8051 102.596 33.5308 98.2412C36.2565 93.8859 38.9452 89.4974 41.5969 85.0755C42.2302 84.02 42.9597 82.9682 43.3671 81.798C43.8115 80.5277 43.5597 79.2944 43.1597 78.0501C42.4045 75.78 41.5216 73.5544 40.5155 71.3839C39.523 69.1952 38.4527 67.0435 37.4009 64.8844C36.3491 62.7253 35.2492 60.5921 34.4382 58.3405C33.6975 56.1888 33.3975 53.9593 33.9752 51.7299C34.553 49.5004 35.7973 47.5302 37.0972 45.6748C37.4379 45.1859 37.7898 44.7008 38.1342 44.1934C38.1601 44.1563 38.2157 44.1934 38.1897 44.2378C36.7565 46.171 35.3603 48.219 34.5196 50.4892C34.09 51.6082 33.8497 52.791 33.8086 53.9889C33.8016 55.205 33.9904 56.4142 34.3678 57.5702C35.064 59.8218 36.164 61.9513 37.1898 64.0697C38.2156 66.188 39.3119 68.3804 40.3229 70.5618C41.3659 72.7572 42.2931 75.0058 43.1005 77.2983C43.4449 78.3167 43.8412 79.3833 43.8115 80.4758C43.7856 81.672 43.2153 82.7497 42.6227 83.7571C40.0303 88.1456 37.375 92.4823 34.6715 96.7931C31.968 101.104 29.1867 105.415 26.3721 109.681L25.3055 111.292C25.25 111.359 25.1537 111.281 25.1981 111.203Z" fill="#263238"/>
<path d="M56.2513 30.2722C57.8549 33.7904 65.9543 38.6382 69.7466 39.1604C72.4723 39.5308 80.7606 39.6641 83.6011 39.2308C86.9342 38.7197 84.3862 29.7389 82.4197 29.9722C77.0127 30.6018 72.4205 31.3054 70.9761 31.3054C69.2133 31.3054 59.677 28.2464 58.5289 27.8131C55.7143 26.765 55.344 28.276 56.2513 30.2722Z" fill="#EB9481"/>
<path d="M56.3032 31.2091C58.3326 34.2126 65.0766 39.1233 65.0766 39.1233L66.0135 37.0494L69.1133 30.1907C69.1133 30.1907 62.9175 28.2464 58.84 27.3575C58.3602 27.2483 57.8721 27.179 57.3809 27.1501C54.7774 27.0094 54.5514 28.6167 56.3032 31.2091Z" fill="#90CAF9"/>
<path d="M56.3032 31.2089C58.3326 34.2124 65.0766 39.1231 65.0766 39.1231L66.0135 37.0492C63.4989 34.1272 59.614 29.7016 57.3809 27.1574C54.7774 27.0092 54.5514 28.6165 56.3032 31.2089Z" fill="#263238"/>
<path d="M63.8619 37.7307C64.3766 36.4678 66.6654 31.383 67.2357 30.3238C67.2727 30.2497 67.332 30.2571 67.2986 30.3238C66.3058 32.8525 65.1759 35.3251 63.9137 37.7307C63.8989 37.7751 63.8396 37.7603 63.8619 37.7307Z" fill="#263238"/>
<path d="M81.4272 30.0648C84.7158 29.6353 88.7859 28.8983 92.2338 30.3611C92.621 30.513 92.9459 30.7909 93.1559 31.1499C94.7114 31.7795 94.8817 32.7017 94.8817 32.7017C96.152 33.7312 96.1964 34.7015 96.1964 34.7015C96.1964 34.7015 98.0185 35.4422 97.7408 36.6347C97.4371 37.9531 94.941 36.6347 93.1263 36.7421C88.9599 37.0014 83.1271 38.5309 81.9234 38.7235L81.4272 30.0648Z" fill="#EB9481"/>
<path d="M88.5711 33.9461C89.7894 33.8628 91.0119 33.8628 92.2301 33.9461C93.5568 34.1125 94.869 34.3787 96.1557 34.7423C96.1641 34.7453 96.1733 34.7448 96.1812 34.741C96.1892 34.7371 96.1954 34.7303 96.1983 34.722C96.2013 34.7136 96.2008 34.7044 96.1969 34.6964C96.1931 34.6885 96.1863 34.6823 96.178 34.6794C93.7607 33.731 91.1294 33.4645 88.5711 33.9091C88.5119 33.9017 88.5119 33.9498 88.5711 33.9461Z" fill="#263238"/>
<path d="M87.7971 30.0982C89.8303 30.2019 91.1005 30.5278 93.1448 31.1425V31.1203C90.8931 30.1796 89.971 30.0908 87.786 30.0093C87.7156 30.0389 87.7193 30.0982 87.7971 30.0982Z" fill="#263238"/>
<path d="M88.1267 37.3716C87.5971 37.6197 87.7267 37.8975 88.7378 38.1308C89.7488 38.3641 93.9522 38.4345 93.8041 39.901C93.6559 41.3676 87.7267 41.1824 86.0713 40.6639C84.4159 40.1454 81.9235 38.7233 81.9235 38.7233C83.0974 38.527 85.8528 37.7827 88.1267 37.3716Z" fill="#EB9481"/>
<path d="M60.6547 35.8793C60.6288 36.5126 60.5695 37.157 60.4806 37.7976C60.4806 37.7717 60.4806 37.7495 60.5066 37.7273C60.6288 37.394 60.751 37.0533 60.8991 36.7311C60.8991 36.7311 60.9362 36.7311 60.9325 36.7311C60.8613 37.0841 60.7546 37.4291 60.614 37.7606C60.5473 37.9199 60.4843 38.0754 60.414 38.231C60.3695 38.5161 60.3177 38.7976 60.2621 39.079C60.151 39.6086 59.6511 41.8603 59.5215 42.2418C59.4992 42.3195 59.4029 42.301 59.4103 42.2121C59.4363 41.7974 59.8548 39.4531 59.9399 38.9198C60.1054 37.8901 60.3267 36.8701 60.6029 35.8645C60.6214 35.846 60.6584 35.8608 60.6547 35.8793Z" fill="#263238"/>
<path d="M56.8031 52.7187C55.8143 53.2261 54.5403 54.0149 48.8 52.8854C48.4297 52.8113 48.0816 52.7224 47.7186 52.615C42.3376 51.0003 35.8677 44.6712 35.5159 44.223C35.5159 44.223 44.0671 30.3611 55.0033 26.0022C56.355 25.4652 58.5919 26.5022 59.8177 27.7947C60.2584 28.2576 61.2176 31.661 60.851 34.4164C60.4843 37.1717 57.7882 52.2113 56.8031 52.7187Z" fill="#90CAF9"/>
<path d="M56.0328 34.29C56.0741 34.8758 55.9921 35.4637 55.7921 36.0158C55.7452 35.4299 55.8273 34.8408 56.0328 34.29Z" fill="white"/>
<path d="M52.3035 43.7305C52.327 44.022 52.3171 44.3152 52.2739 44.6045C52.2382 44.8959 52.1673 45.1819 52.0628 45.4563C52.0372 45.1636 52.0472 44.8689 52.0924 44.5786C52.1302 44.2887 52.2011 44.0042 52.3035 43.7305Z" fill="white"/>
<path d="M45.9669 36.5938C46.0086 37.1807 45.9266 37.77 45.7262 38.3233C45.6796 37.7361 45.7618 37.1459 45.9669 36.5938Z" fill="white"/>
<path d="M58.4734 43.249C58.497 43.5418 58.4871 43.8363 58.4438 44.1267C58.4081 44.4182 58.3372 44.7042 58.2327 44.9785C58.2072 44.6858 58.2171 44.3911 58.2623 44.1008C58.2997 43.8097 58.3705 43.5239 58.4734 43.249Z" fill="white"/>
<path d="M50.337 35.3717C50.6283 35.3469 50.9216 35.3556 51.211 35.3976C51.5025 35.4346 51.7885 35.5067 52.0628 35.6124C51.477 35.6545 50.8889 35.5725 50.337 35.3717Z" fill="white"/>
<path d="M43.1449 42.1896C43.7307 42.1483 44.3186 42.2303 44.8707 42.4303C44.2847 42.4773 43.6956 42.3951 43.1449 42.1896Z" fill="white"/>
<path d="M51.6183 49.5708C52.2041 49.5287 52.7922 49.6107 53.3441 49.8115C52.7582 49.8577 52.1693 49.7756 51.6183 49.5708Z" fill="white"/>
<path d="M40.9266 46.8893C41.5123 46.848 42.1002 46.93 42.6524 47.13C42.0664 47.1763 41.4775 47.0941 40.9266 46.8893Z" fill="white"/>
<path d="M55.9773 27.654C56.563 27.6127 57.151 27.6947 57.7031 27.8947C57.1173 27.936 56.5294 27.854 55.9773 27.654Z" fill="white"/>
<path d="M53.8848 30.0166C53.6976 30.2417 53.4837 30.4431 53.2478 30.6166C53.0184 30.794 52.77 30.9455 52.5072 31.0684C52.6931 30.8447 52.9044 30.6434 53.1367 30.4684C53.3684 30.2903 53.6193 30.1387 53.8848 30.0166Z" fill="white"/>
<path d="M42.482 36.731C42.2925 36.9541 42.0775 37.1542 41.8413 37.3272C41.6142 37.508 41.3653 37.6598 41.1006 37.779C41.2911 37.5569 41.5061 37.3569 41.7413 37.1828C41.969 37.0027 42.2177 36.851 42.482 36.731Z" fill="white"/>
<path d="M56.7217 39.7603C56.5322 39.9845 56.3172 40.1859 56.081 40.3602C55.8533 40.5402 55.6046 40.692 55.3403 40.812C55.5297 40.5878 55.7448 40.3864 55.981 40.2121C56.2099 40.0338 56.4584 39.8823 56.7217 39.7603Z" fill="white"/>
<path d="M47.5001 45.5674C47.3107 45.7917 47.0956 45.993 46.8594 46.1673C46.6314 46.3468 46.3827 46.4985 46.1187 46.6192C46.3082 46.3949 46.5232 46.1935 46.7594 46.0192C46.9884 45.841 47.2369 45.6894 47.5001 45.5674Z" fill="white"/>
<path d="M60.2547 31.8276C60.0653 32.0519 59.8503 32.2533 59.614 32.4276C59.3846 32.6051 59.1362 32.7566 58.8734 32.8794C59.0628 32.6551 59.2778 32.4538 59.514 32.2795C59.7421 32.0999 59.9908 31.9483 60.2547 31.8276Z" fill="white"/>
<path d="M60.0621 38.5567C59.8379 38.3672 59.6365 38.1522 59.4622 37.916C59.2819 37.6884 59.1302 37.4397 59.0104 37.1753C59.2354 37.3625 59.4369 37.5764 59.6103 37.8123C59.7873 38.0434 59.9387 38.293 60.0621 38.5567Z" fill="white"/>
<path d="M39.5081 43.1934C39.2839 43.0039 39.0825 42.7889 38.9082 42.5527C38.73 42.3238 38.5784 42.0753 38.4564 41.812C38.6806 42.0015 38.882 42.2165 39.0563 42.4527C39.2358 42.6808 39.3875 42.9294 39.5081 43.1934Z" fill="white"/>
<path d="M57.5623 48.7078C57.3373 48.5205 57.1358 48.3066 56.9624 48.0708C56.7849 47.8413 56.6334 47.5929 56.5106 47.3301C56.7348 47.5195 56.9362 47.7346 57.1105 47.9708C57.2892 48.198 57.4409 48.4454 57.5623 48.7078Z" fill="white"/>
<path d="M48.5149 32.9866C48.2907 32.7984 48.0893 32.5846 47.9149 32.3496C47.7382 32.1196 47.5867 31.8713 47.4631 31.6089C47.6882 31.7961 47.8896 32.01 48.0631 32.2459C48.2398 32.4759 48.3912 32.7242 48.5149 32.9866Z" fill="white"/>
<path d="M48.6741 51.8482C48.4498 51.6587 48.2485 51.4437 48.0742 51.2075C47.8965 50.9781 47.745 50.7297 47.6223 50.4668C47.8474 50.654 48.0489 50.8679 48.2223 51.1038C48.4005 51.3341 48.5521 51.5838 48.6741 51.8482Z" fill="white"/>
<path d="M50.211 40.7232C49.9889 40.5327 49.7889 40.3177 49.6148 40.0825C49.434 39.8553 49.2822 39.6065 49.163 39.3418C49.3861 39.5313 49.5862 39.7463 49.7592 39.9825C49.9393 40.2102 50.091 40.4589 50.211 40.7232Z" fill="white"/>
<path d="M57.8142 31.4867C56.418 31.2274 55.107 28.3424 54.9403 26.4018C54.9403 26.2685 55.5921 25.213 56.3365 23.8909C56.7883 23.0873 57.2661 22.1799 57.6475 21.3208C57.7253 21.1467 58.1808 21.7355 58.1808 21.7355L59.1733 22.4762L62.4509 24.9908C61.6704 25.9274 61.0075 26.9559 60.4769 28.0536C60.4245 28.1725 60.3848 28.2967 60.3584 28.4239C60.357 28.4449 60.357 28.4659 60.3584 28.4869C60.1547 29.2202 59.1585 31.7348 57.8142 31.4867Z" fill="#EB9481"/>
<path d="M60.3584 28.4428C60.357 28.4637 60.357 28.4848 60.3584 28.5057C60.1638 28.4487 59.9743 28.3756 59.7918 28.2872C56.2032 26.6059 57.7845 21.7988 57.7845 21.7988L59.1919 22.4951L62.4694 25.0097C61.6889 25.9462 61.026 26.9748 60.4955 28.0724C60.4367 28.1906 60.3908 28.3148 60.3584 28.4428Z" fill="#263238"/>
<path d="M66.2172 14.7583C66.2172 14.7583 67.8578 15.799 67.8652 17.6507C67.8727 19.5024 67.1246 21.3134 66.969 21.38C66.8135 21.4467 66.2172 14.7583 66.2172 14.7583Z" fill="#263238"/>
<path d="M58.0771 15.7211C57.092 17.6654 57.1439 23.7946 58.3734 25.3722C60.1584 27.661 63.5952 28.4498 65.6728 26.187C67.6838 23.9946 67.4764 16.01 66.0432 14.5212C63.9581 12.3214 59.5363 12.8436 58.0771 15.7211Z" fill="#EB9481"/>
<path d="M63.3064 20.6284C63.3064 20.6284 63.273 20.6506 63.2767 20.6655C63.2989 21.0839 63.2545 21.5654 62.8805 21.7135C62.8805 21.7135 62.8805 21.7394 62.8805 21.7357C63.3434 21.6617 63.3952 21.021 63.3064 20.6284Z" fill="#263238"/>
<path d="M62.9249 20.2024C62.2509 20.1654 62.2287 21.5134 62.8545 21.5468C63.4804 21.5801 63.4878 20.232 62.9249 20.2024Z" fill="#263238"/>
<path d="M65.5914 20.6138C65.5914 20.6138 65.6247 20.6138 65.6247 20.6508C65.6025 21.0693 65.6506 21.5507 66.0284 21.6952C66.0284 21.6952 66.0284 21.7211 66.0284 21.7174C65.5617 21.647 65.5062 21.0063 65.5914 20.6138Z" fill="#263238"/>
<path d="M65.9728 20.184C66.6431 20.1433 66.6765 21.4913 66.0543 21.5284C65.4321 21.5654 65.4099 20.2173 65.9728 20.184Z" fill="#263238"/>
<path d="M62.5027 19.1769C62.6797 19.1265 62.854 19.0672 63.0249 18.9991C63.2194 18.9639 63.3966 18.8649 63.5286 18.7177C63.5606 18.6638 63.5739 18.6008 63.5666 18.5386C63.5592 18.4763 63.5315 18.4182 63.4878 18.3732C63.3876 18.2971 63.2689 18.249 63.1439 18.234C63.0189 18.2191 62.8921 18.2377 62.7768 18.2881C62.5269 18.355 62.3105 18.512 62.1694 18.7288C62.1412 18.7804 62.1284 18.8389 62.1325 18.8976C62.1366 18.9562 62.1574 19.0124 62.1925 19.0596C62.2276 19.1068 62.2755 19.1429 62.3304 19.1637C62.3854 19.1845 62.4452 19.189 62.5027 19.1769Z" fill="#263238"/>
<path d="M66.432 19.773C66.2519 19.7327 66.0739 19.6832 65.8987 19.6248C65.7036 19.599 65.5225 19.5091 65.384 19.3693C65.3483 19.3178 65.3311 19.2557 65.3351 19.1932C65.3391 19.1307 65.3642 19.0713 65.4062 19.0249C65.5017 18.9432 65.6174 18.8888 65.7413 18.8673C65.8651 18.8458 65.9924 18.858 66.1098 18.9026C66.3632 18.9551 66.5877 19.1005 66.7394 19.31C66.7712 19.3596 66.7878 19.4174 66.7873 19.4763C66.7868 19.5351 66.7692 19.5926 66.7366 19.6417C66.704 19.6907 66.6579 19.7293 66.6038 19.7526C66.5498 19.7759 66.4901 19.783 66.432 19.773Z" fill="#263238"/>
<path d="M62.3583 24.5874C62.4583 24.6874 62.5545 24.8207 62.7064 24.8356C62.8621 24.8355 63.016 24.8027 63.1582 24.7393C63.1582 24.7393 63.1841 24.7393 63.1582 24.7615C63.0975 24.8429 63.0158 24.9062 62.9219 24.9447C62.8279 24.9832 62.7253 24.9954 62.6249 24.98C62.5403 24.9569 62.4643 24.9095 62.4064 24.8437C62.3485 24.7779 62.3111 24.6965 62.299 24.6096C62.2961 24.6018 62.2964 24.5931 62.2998 24.5854C62.3033 24.5778 62.3097 24.5719 62.3175 24.5689C62.3254 24.566 62.3341 24.5663 62.3417 24.5697C62.3494 24.5732 62.3553 24.5796 62.3583 24.5874Z" fill="#263238"/>
<path d="M64.7803 22.8025C64.7803 22.8025 64.7988 23.4246 64.7803 23.7172C64.2112 23.6568 63.6365 23.6768 63.073 23.7765C62.9397 23.8061 62.9545 23.6987 63.1064 23.6283C63.5603 23.4209 64.0658 23.3538 64.5581 23.4357C64.5877 23.358 64.51 22.4729 64.5581 22.4766C64.7821 22.5205 64.999 22.5953 65.2025 22.6988C65.2025 21.3952 64.9951 20.1064 65.0136 18.8028C65.0136 18.7583 65.084 18.7509 65.0914 18.8028C65.3546 20.1818 65.4786 21.5838 65.4617 22.9876C65.4654 23.1469 64.8914 22.8617 64.7803 22.8025Z" fill="#263238"/>
<path d="M63.947 23.4947C63.7994 23.883 63.5255 24.2104 63.1693 24.4243C62.6101 24.6502 62.4286 24.1428 62.9916 23.6836C63.2868 23.5344 63.6173 23.469 63.947 23.4947Z" fill="#263238"/>
<path d="M63.3656 24.3098C63.3065 24.358 63.2403 24.3967 63.1693 24.4246C62.6545 24.632 62.4509 24.2209 62.8656 23.8062C63.1471 23.8284 63.4693 23.9321 63.3656 24.3098Z" fill="#FF99BA"/>
<path d="M57.7957 20.9616C58.4734 21.1689 59.2511 19.1321 59.4733 18.3692C59.6659 17.6803 59.8881 15.4916 59.9214 15.3398C59.9548 15.1879 62.8842 17.2766 64.5803 16.7804C66.2765 16.2841 67.4283 14.7472 67.4542 14.0324C67.4801 13.3177 65.3581 11.503 63.5249 11.4104C61.6917 11.3178 59.2067 13.6325 59.2067 13.6325C59.5068 13.2918 59.7793 12.9277 60.0214 12.5437C59.9918 12.4622 58.8067 12.9362 58.5882 13.7806C58.5882 13.7806 58.8252 12.7177 58.7363 12.6992C58.6475 12.6807 57.7253 13.588 57.9327 14.2769C57.9327 14.2769 56.8661 15.199 56.7698 16.2101C56.6735 17.2211 56.9994 20.7171 57.7957 20.9616Z" fill="#263238"/>
<path d="M65.7951 16.3951C65.2906 16.6686 64.7474 16.8634 64.1841 16.9728C63.5518 17.0292 62.9154 16.9274 62.3324 16.6766C61.7449 16.4496 61.1993 16.1267 60.7177 15.7211C60.2918 15.373 59.9103 14.9471 59.4548 14.636C59.34 14.5545 59.2104 14.7211 59.2807 14.8248C60.0407 15.8983 61.1264 16.6983 62.3768 17.1062C62.9575 17.2955 63.5775 17.3309 64.176 17.2088C64.7745 17.0868 65.3311 16.8115 65.7914 16.4099C65.7914 16.4099 65.8025 16.3951 65.7951 16.3951Z" fill="#263238"/>
<path d="M58.503 20.7805C58.503 20.7805 57.4513 18.6473 56.5032 18.9917C55.5551 19.3362 56.1328 22.2878 57.1068 22.8285C57.2261 22.9057 57.3598 22.958 57.4998 22.9823C57.6398 23.0065 57.7833 23.0023 57.9216 22.9698C58.06 22.9373 58.1903 22.8772 58.3048 22.7931C58.4194 22.709 58.5158 22.6026 58.5882 22.4804L58.503 20.7805Z" fill="#EB9481"/>
<path d="M56.692 19.832C56.692 19.832 56.6698 19.832 56.692 19.8617C57.3661 20.2616 57.6401 20.9727 57.8031 21.7134C57.7724 21.635 57.725 21.5642 57.6643 21.5058C57.6036 21.4475 57.5309 21.4031 57.4513 21.3756C57.3717 21.3482 57.2871 21.3383 57.2033 21.3467C57.1195 21.3552 57.0386 21.3817 56.9661 21.4245C56.9439 21.4245 56.9661 21.4652 56.9661 21.4652C57.0986 21.4446 57.2342 21.4656 57.3542 21.5253C57.4743 21.585 57.5729 21.6805 57.6364 21.7985C57.7424 21.9963 57.8268 22.2049 57.8882 22.4207C57.9105 22.4911 58.0327 22.4726 58.0216 22.3948C58.1808 21.4726 57.6623 20.0765 56.692 19.832Z" fill="#263238"/>
<path d="M51.5591 30.3054C50.8184 34.5014 55.3662 48.6374 58.2808 51.2779C62.6175 55.2035 70.6354 57.7848 73.5426 58.6255C74.8092 58.9958 78.3126 50.0817 77.0312 49.4929C74.287 48.2448 65.7617 45.5783 64.9507 44.9117C64.1396 44.2451 59.2511 37.1827 57.0735 33.1163C54.1589 27.6427 51.9257 28.1834 51.5591 30.3054Z" fill="#EB9481"/>
<path d="M74.8721 48.7075C74.8721 48.7075 78.657 49.6741 81.0976 50.4185C82.4605 50.837 84.7344 51.7591 85.5973 52.522C86.8861 53.6664 91.545 59.266 90.2117 60.4252C89.0044 61.4769 85.6121 56.1551 85.6121 56.1551C85.6121 56.1551 89.5081 61.2214 87.8341 62.2176C86.1602 63.2138 83.0974 56.6921 83.0974 56.6921C83.0974 56.6921 86.9823 61.988 85.0825 62.7398C83.6455 63.3064 80.5643 57.555 80.5643 57.555C80.5643 57.555 83.8752 62.1287 82.416 62.7768C80.8087 63.4953 77.6349 58.3624 77.6349 58.3624C73.6648 59.3882 71.3391 58.2512 69.8096 57.2513C69.4503 57.0069 74.8721 48.7075 74.8721 48.7075Z" fill="#EB9481"/>
<path d="M84.3751 54.3147C84.8566 54.8925 85.3454 55.4776 85.7713 56.0961C86.1972 56.7145 86.6009 57.3515 86.9675 58.007C87.4643 58.8549 87.8619 59.757 88.1526 60.6957C87.5156 59.0662 86.0232 56.8257 85.5973 56.2072C85.1714 55.5887 84.7751 54.948 84.3529 54.3295C84.3418 54.3147 84.364 54.2999 84.3751 54.3147Z" fill="#263238"/>
<path d="M82.1123 55.8147C82.9345 56.4665 84.6566 58.8885 85.3195 60.5143C85.3491 60.581 85.3195 60.5773 85.2714 60.5143C84.7529 59.7107 82.6493 56.5998 82.0938 55.8258C82.0827 55.8147 82.1012 55.8036 82.1123 55.8147Z" fill="#263238"/>
<path d="M79.9384 56.7628C80.96 57.8343 81.767 59.0914 82.316 60.4663C82.342 60.5329 82.2901 60.5218 82.2494 60.4663C81.4828 59.2182 80.8902 58.2442 79.8977 56.7962C79.8829 56.7628 79.9162 56.7295 79.9384 56.7628Z" fill="#263238"/>
<path d="M55.6921 30.613C52.3109 25.8319 50.2888 27.6021 50.9665 32.7944C51.6035 37.6495 53.3034 43.4343 53.3034 43.4343L61.8213 39.3013C61.8213 39.3013 57.8438 33.6758 55.6921 30.613Z" fill="#90CAF9"/>
<path d="M57.7475 32.4941C57.8598 32.7642 57.9406 33.0463 57.9882 33.3348C58.0402 33.6243 58.0589 33.9188 58.0438 34.2125C57.9327 33.9411 57.8532 33.6578 57.8068 33.3681C57.7517 33.0803 57.7318 32.7868 57.7475 32.4941Z" fill="white"/>
<path d="M52.6997 35.4013C53.2433 35.1802 53.8282 35.0792 54.4144 35.105C54.1442 35.2161 53.8622 35.2956 53.5737 35.3421C53.2859 35.397 52.9924 35.4169 52.6997 35.4013Z" fill="white"/>
<path d="M52.9182 27.9648C52.6889 28.5061 52.3467 28.9922 51.9146 29.3907C52.144 28.8494 52.4861 28.3633 52.9182 27.9648Z" fill="white"/>
<path d="M60.1362 37.6343C60.0238 37.9051 59.8809 38.1623 59.7103 38.4009C59.5442 38.6425 59.3503 38.8637 59.1326 39.0601C59.3619 38.5189 59.7041 38.0328 60.1362 37.6343Z" fill="white"/>
<path d="M54.2107 40.5344C53.9392 40.4233 53.6819 40.2803 53.4441 40.1085C53.2024 39.9425 52.9811 39.7486 52.7849 39.5308C53.3261 39.7601 53.8122 40.1023 54.2107 40.5344Z" fill="white"/>
<path d="M56.8031 32.0532C57.2587 32.6791 57.729 33.2902 58.1956 33.9049C58.0771 33.5938 57.9734 33.2791 57.8845 32.9606H57.9068C57.9993 33.205 58.1067 33.4457 58.1956 33.7012L58.3289 34.0716C58.3404 34.0969 58.3503 34.1228 58.3586 34.1494C58.7289 34.6271 59.0993 35.1048 59.44 35.5937C59.8585 36.1788 60.2621 36.7714 60.6695 37.3639C61.0769 37.9565 61.488 38.6935 61.9287 39.2897C61.9694 39.3416 61.188 39.6601 61.1028 39.7008C61.0176 39.7415 60.9732 39.6712 61.0547 39.6452C61.1361 39.6193 61.7583 39.2379 61.7657 39.2305C61.3583 38.6305 60.888 38.0787 60.4621 37.4973C60.0362 36.9158 59.614 36.3344 59.203 35.7455C58.3697 34.5456 57.6068 33.3013 56.7772 32.0977L56.8031 32.0532Z" fill="#263238"/>
<path d="M51.1665 36.231C51.2961 36.4829 51.4369 36.731 51.5369 36.9902L51.6776 37.3124C51.4813 36.3903 51.3072 35.4607 51.1036 34.5386C51.4961 36.0199 51.8924 37.5346 52.2553 39.0382C52.5997 40.4752 53.0182 41.9269 53.2182 43.3935C53.4765 43.2802 53.7441 43.1897 54.0182 43.1231C53.7432 43.3011 53.4471 43.4442 53.1367 43.549C52.6903 42.0577 52.3195 40.5448 52.0257 39.016C51.9331 38.6012 51.848 38.1864 51.7591 37.7717C51.6628 37.5198 51.548 37.2791 51.4332 37.031C51.3184 36.7828 51.2147 36.5051 51.111 36.2421C51.1332 36.2273 51.1591 36.2125 51.1665 36.231Z" fill="#263238"/>
<path d="M53.4293 42.0044C54.6144 41.3378 59.5659 38.775 60.6732 38.301C60.751 38.2676 60.7917 38.301 60.7139 38.3528C58.3636 39.7185 55.9404 40.9549 53.4552 42.0562C53.4256 42.0637 53.396 42.0229 53.4293 42.0044Z" fill="#263238"/>
<path d="M189.134 139.367H76.2979L92.6115 46.8374H205.447L189.134 139.367Z" fill="#90CAF9"/>
<path d="M131.231 37.2529H94.304L92.6115 46.8374H132.131L131.231 37.2529Z" fill="#90CAF9"/>
<g opacity="0.1">
<path d="M189.134 139.367H76.2979L92.6115 46.8374H205.447L189.134 139.367Z" fill="black"/>
<path d="M131.231 37.2529H94.304L92.6115 46.8374H132.131L131.231 37.2529Z" fill="black"/>
</g>
<path d="M90.3191 41.1639C90.0721 40.1041 90.0721 39.0017 90.3191 37.9419C90.566 39.0017 90.566 40.1041 90.3191 41.1639Z" fill="#263238"/>
<path d="M87.0379 42.1121C86.6608 41.7211 86.3359 41.2829 86.0713 40.8085C85.7937 40.344 85.5759 39.8463 85.4232 39.3271C85.8013 39.7159 86.1264 40.153 86.3898 40.627C86.6667 41.0932 86.8844 41.5921 87.0379 42.1121Z" fill="#263238"/>
<path d="M84.6676 44.5749C83.627 44.2584 82.6729 43.7073 81.879 42.9639C82.3982 43.1148 82.896 43.3313 83.3603 43.6083C83.8348 43.8746 84.274 44.1993 84.6676 44.5749Z" fill="#263238"/>
<path d="M83.8381 47.8932C82.7783 48.1401 81.6759 48.1401 80.6161 47.8932C81.6759 47.6463 82.7783 47.6463 83.8381 47.8932Z" fill="#263238"/>
<path d="M84.801 51.1743C84.4083 51.5494 83.9704 51.8741 83.4974 52.1409C83.033 52.4179 82.5352 52.6344 82.016 52.7853C82.407 52.4082 82.8452 52.0833 83.3196 51.8187C83.7833 51.5404 84.2813 51.3238 84.801 51.1743Z" fill="#263238"/>
<path d="M87.26 53.5405C86.9448 54.5828 86.3935 55.5383 85.6491 56.3329C85.7999 55.8131 86.0177 55.3151 86.2972 54.8515C86.5612 54.3754 86.8847 53.9349 87.26 53.5405Z" fill="#263238"/>
<path d="M90.5783 54.3594C90.7074 54.8865 90.7697 55.4277 90.7635 55.9704C90.7715 56.5131 90.7092 57.0546 90.5783 57.5814C90.4456 57.0549 90.3833 56.5132 90.3932 55.9704C90.387 55.4277 90.4492 54.8865 90.5783 54.3594Z" fill="#263238"/>
<path d="M93.8596 53.4298C94.2366 53.8208 94.5615 54.259 94.8262 54.7334C95.1044 55.1971 95.321 55.6951 95.4705 56.2147C94.7261 55.4201 94.1748 54.4646 93.8596 53.4224V53.4298Z" fill="#263238"/>
<path d="M96.226 50.9482C96.7457 51.0978 97.2437 51.3144 97.7074 51.5926C98.1818 51.8572 98.62 52.1821 99.011 52.5592C98.4913 52.4097 97.9933 52.1931 97.5296 51.9148C97.0552 51.6502 96.6171 51.3253 96.226 50.9482Z" fill="#263238"/>
<path d="M97.0445 47.63C98.1056 47.3831 99.2091 47.3831 100.27 47.63C99.2091 47.8768 98.1056 47.8768 97.0445 47.63Z" fill="#263238"/>
<path d="M96.0964 44.3488C96.4885 43.974 96.9265 43.6504 97.4 43.3859C97.8628 43.105 98.361 42.887 98.8814 42.7378C98.0868 43.4822 97.1312 44.0335 96.089 44.3488H96.0964Z" fill="#263238"/>
<path d="M93.6336 41.9822C93.7861 41.4636 94.0026 40.966 94.278 40.5009C94.5426 40.0265 94.8675 39.5883 95.2446 39.1973C95.0951 39.717 94.8785 40.2149 94.6002 40.6786C94.3356 41.1531 94.0107 41.5912 93.6336 41.9822Z" fill="#263238"/>
<path d="M188.967 139.367H75.8905L59.8325 50.1963H172.913L188.967 139.367Z" fill="#90CAF9"/>
<path d="M99.0184 104.707C101.614 104.707 103.718 102.603 103.718 100.008C103.718 97.4122 101.614 95.3081 99.0184 95.3081C96.4229 95.3081 94.3188 97.4122 94.3188 100.008C94.3188 102.603 96.4229 104.707 99.0184 104.707Z" fill="#263238"/>
<path d="M136.171 104.707C138.767 104.707 140.871 102.603 140.871 100.008C140.871 97.4122 138.767 95.3081 136.171 95.3081C133.576 95.3081 131.472 97.4122 131.472 100.008C131.472 102.603 133.576 104.707 136.171 104.707Z" fill="#263238"/>
<path d="M124.346 105.459L124.087 104.967C124.065 104.922 121.635 100.434 116.75 100.434C112.306 100.434 111.195 104.659 111.166 104.841L111.032 105.378L109.955 105.119L110.084 104.578C110.084 104.526 111.41 99.3228 116.75 99.3228C122.306 99.3228 124.961 104.241 125.072 104.452L125.331 104.941L124.346 105.459Z" fill="#263238"/>
<path d="M181.501 99.6481L181.423 99.2778C181.664 99.2259 181.901 99.1704 182.138 99.1074L182.231 99.4778C181.979 99.5407 181.746 99.5963 181.501 99.6481Z" fill="#263238"/>
<path d="M183.664 99.0517L183.545 98.7035C184.008 98.5443 184.471 98.3702 184.919 98.1814L185.064 98.5221C184.608 98.7147 184.138 98.8924 183.664 99.0517ZM186.423 97.8703L186.256 97.5444C186.69 97.3185 187.123 97.074 187.534 96.8037L187.727 97.1185C187.304 97.411 186.864 97.6592 186.423 97.8703ZM188.971 96.3037L188.752 96.0037C189.152 95.7112 189.538 95.4038 189.9 95.089L190.145 95.3667C189.756 95.7038 189.386 96.0186 188.967 96.3185L188.971 96.3037ZM191.23 94.3335L190.96 94.078C191.3 93.7076 191.623 93.3373 191.919 92.9669L192.211 93.1928C191.904 93.6002 191.574 93.9817 191.237 94.3483L191.23 94.3335ZM193.063 91.9633L192.748 91.767C193.004 91.3533 193.232 90.9227 193.43 90.4782L193.771 90.6301C193.561 91.0935 193.324 91.5437 193.06 91.9781L193.063 91.9633ZM194.289 89.2154L193.919 89.1117C194.054 88.647 194.154 88.1729 194.219 87.6933L194.589 87.7414C194.528 88.245 194.426 88.7428 194.285 89.2302L194.289 89.2154ZM194.7 86.2526H194.33V86.1452C194.33 85.6971 194.304 85.2416 194.259 84.7935L194.63 84.7564C194.678 85.2178 194.703 85.6813 194.704 86.1452L194.7 86.2526ZM194.034 83.3528C193.934 82.8754 193.81 82.4032 193.663 81.9381L194.034 81.827C194.185 82.3085 194.315 82.7973 194.404 83.2751L194.034 83.3528ZM193.156 80.5642C192.978 80.1272 192.785 79.679 192.548 79.2272L192.882 79.0606C193.108 79.5198 193.315 79.979 193.497 80.4234L193.156 80.5642ZM191.86 77.9236C191.63 77.52 191.378 77.0941 191.119 76.6571L191.434 76.4608C191.704 76.9015 191.96 77.3311 192.174 77.7422L191.86 77.9236ZM190.312 75.409C190.041 75.0016 189.767 74.5905 189.486 74.1795L189.793 73.9721C190.075 74.3831 190.349 74.7942 190.619 75.209L190.312 75.409ZM188.645 72.9573C188.367 72.55 188.086 72.1389 187.812 71.7315L188.119 71.5241C188.393 71.9315 188.671 72.3426 188.949 72.7462L188.645 72.9573ZM186.99 70.4909C186.719 70.0761 186.456 69.6539 186.197 69.2317L186.512 69.0391C186.771 69.4613 187.034 69.8761 187.301 70.2909L186.99 70.4909ZM185.445 67.9466C185.193 67.4985 184.96 67.0541 184.749 66.6282L185.082 66.4615C185.29 66.8837 185.523 67.3207 185.767 67.7651L185.445 67.9466ZM184.131 65.2801C183.934 64.8172 183.76 64.3469 183.597 63.8876L183.968 63.7691C184.123 64.2172 184.297 64.6802 184.49 65.1357L184.131 65.2801ZM183.168 62.4544C183.045 61.973 182.938 61.4804 182.857 60.973L183.227 60.9138C183.308 61.3878 183.408 61.8693 183.531 62.3433L183.168 62.4544ZM182.671 59.4917C182.634 59.0362 182.616 58.5769 182.616 58.1177V57.9955H182.986V58.114C182.986 58.5621 182.986 59.0139 183.042 59.4583L182.671 59.4917ZM183.042 56.5289L182.671 56.4919C182.671 56.3919 182.69 56.2882 182.701 56.1808C182.745 55.7845 182.801 55.3883 182.868 55.0105L183.238 55.0735C183.175 55.4438 183.12 55.8327 183.075 56.2216C183.09 56.3364 183.09 56.4364 183.06 56.54L183.042 56.5289ZM183.557 53.6477L183.186 53.5477C183.323 53.0588 183.482 52.5811 183.66 52.1256L184.005 52.2589C183.836 52.7174 183.693 53.1848 183.575 53.6588L183.557 53.6477ZM202.011 51.4886C201.803 51.4886 201.589 51.459 201.377 51.4293C201.089 51.3886 200.8 51.3404 200.515 51.2849L200.589 50.9146C200.863 50.9664 201.148 51.0145 201.429 51.0553C201.629 51.0812 201.833 51.0997 202.029 51.1108L202.011 51.4886ZM203.533 51.3738L203.455 51.0034C203.92 50.9075 204.365 50.7347 204.773 50.4924L204.966 50.8071C204.53 51.0771 204.052 51.2723 203.551 51.3849L203.533 51.3738ZM184.623 50.9331L184.294 50.759C184.529 50.3173 184.79 49.8895 185.075 49.4776L185.379 49.6887C185.108 50.092 184.862 50.5113 184.642 50.9442L184.623 50.9331ZM199.066 50.9108C198.588 50.7592 198.119 50.5824 197.659 50.3813L197.811 50.0405C198.256 50.2384 198.712 50.4102 199.178 50.5553L199.066 50.9108ZM206.103 49.7554L205.796 49.548C206.059 49.1654 206.215 48.719 206.247 48.2555L206.618 48.2814C206.586 48.8127 206.412 49.3257 206.114 49.7665L206.103 49.7554ZM196.326 49.6998C195.893 49.4479 195.473 49.1722 195.07 48.874L195.289 48.5777C195.681 48.8669 196.089 49.134 196.511 49.3776L196.326 49.6998ZM186.29 48.5444L186.016 48.2962C186.351 47.9233 186.708 47.5708 187.086 47.2407L187.33 47.5185C186.967 47.8436 186.623 48.1898 186.301 48.5555L186.29 48.5444ZM193.915 47.9185C193.546 47.5787 193.196 47.2189 192.867 46.8408L193.145 46.5964C193.465 46.9637 193.805 47.3135 194.163 47.6444L193.915 47.9185ZM205.97 46.9149C205.757 46.4916 205.464 46.1141 205.107 45.8038L205.351 45.5261C205.745 45.8664 206.068 46.2803 206.303 46.7445L205.97 46.9149ZM188.482 46.6223L188.271 46.3186C188.685 46.0357 189.114 45.7749 189.556 45.5372L189.73 45.8631C189.305 46.0982 188.892 46.3553 188.493 46.6334L188.482 46.6223ZM191.941 45.6594C191.8 45.4594 191.663 45.2557 191.534 45.0446L191.052 45.2335L190.912 44.8928L191.337 44.7224C191.271 44.6113 191.204 44.5002 191.141 44.3891L191.463 44.2076C191.537 44.3373 191.611 44.4669 191.689 44.578C191.897 44.5039 192.108 44.4336 192.323 44.3669L192.43 44.7372C192.248 44.7928 192.06 44.852 191.889 44.915C192.004 45.0965 192.123 45.2853 192.26 45.4446L191.941 45.6594ZM203.914 45.0224C203.556 44.8438 203.184 44.6928 202.803 44.5706L202.559 44.4928L202.666 44.1225L202.918 44.2039C203.315 44.3304 203.701 44.4877 204.073 44.6743L203.914 45.0224ZM193.848 44.3595L193.771 43.9891C194.248 43.8817 194.745 43.7929 195.252 43.7225L195.307 44.0928C194.819 44.1706 194.333 44.2632 193.859 44.3706L193.848 44.3595ZM201.144 44.1595C200.681 44.078 200.192 44.0151 199.692 43.9706L199.722 43.6003C200.237 43.6447 200.737 43.7077 201.203 43.7929L201.144 44.1595ZM196.756 43.9447L196.73 43.5744C197.17 43.5484 197.611 43.5336 198.048 43.5336H198.229V43.904H198.052C197.633 43.9151 197.196 43.9262 196.767 43.9558L196.756 43.9447ZM190.497 43.0596C190.297 42.6078 190.126 42.1374 189.96 41.6597L190.33 41.5449C190.486 42.0115 190.66 42.4707 190.852 42.9115L190.497 43.0596ZM189.56 40.2154C189.449 39.7376 189.356 39.2414 189.286 38.734L189.656 38.6821C189.726 39.171 189.815 39.6561 189.923 40.1265L189.56 40.2154ZM189.145 37.2526C189.126 36.9193 189.115 36.5786 189.115 36.2379C189.115 36.0786 189.115 35.9157 189.115 35.7564H189.486C189.486 35.9157 189.486 36.0712 189.486 36.2305C189.486 36.5638 189.486 36.9008 189.512 37.223L189.145 37.2526ZM189.586 34.2899L189.215 34.2528C189.267 33.764 189.338 33.264 189.423 32.7715L189.793 32.8344C189.693 33.327 189.623 33.801 189.575 34.2973L189.586 34.2899ZM190.093 31.3975L189.723 31.3086C189.841 30.8309 189.978 30.3494 190.13 29.868L190.5 29.9828C190.334 30.4679 190.197 30.9383 190.082 31.4049L190.093 31.3975ZM190.982 28.594L190.637 28.4607C190.819 27.9978 191.008 27.5348 191.234 27.0867L191.567 27.2497C191.345 27.6941 191.149 28.1459 190.971 28.6162L190.982 28.594ZM192.256 25.9535L191.934 25.7646C192.186 25.3387 192.456 24.9128 192.737 24.5054L193.041 24.7165C192.752 25.1239 192.489 25.5387 192.245 25.9609L192.256 25.9535ZM193.926 23.5425L193.637 23.3092C193.948 22.9389 194.282 22.5463 194.626 22.1982L194.893 22.4537C194.545 22.8019 194.219 23.1722 193.915 23.5499L193.926 23.5425ZM195.941 21.4094L195.693 21.1353C196.063 20.8057 196.433 20.4798 196.83 20.165L197.059 20.4576C196.663 20.7724 196.285 21.0946 195.93 21.4168L195.941 21.4094ZM198.241 19.5799L198.03 19.2725C198.433 18.9947 198.855 18.7207 199.285 18.4614L199.474 18.7762C199.044 19.0392 198.644 19.3095 198.229 19.5873L198.241 19.5799ZM200.755 18.0504L200.581 17.7245C201.018 17.4911 201.47 17.2689 201.922 17.0615L202.077 17.3986C201.607 17.6097 201.174 17.8319 200.744 18.0578L200.755 18.0504ZM203.433 16.8208L203.296 16.4727C203.762 16.2912 204.233 16.1024 204.699 15.9653L204.818 16.3357C204.348 16.4764 203.881 16.6468 203.422 16.8282L203.433 16.8208Z" fill="#263238"/>
<path d="M206.288 15.884L206.196 15.5136C206.655 15.3951 206.936 15.3433 206.936 15.3433L207.003 15.7136C207.003 15.7136 206.736 15.7692 206.288 15.884Z" fill="#263238"/>
<path d="M212.836 13.4916C211.891 10.5659 205.566 11.6176 206.799 15.4433C208.032 19.2689 213.78 16.421 212.836 13.4916Z" fill="#263238"/>
<path d="M203.359 12.3213C203.407 11.0362 205.192 10.0474 207.718 10.5029C210.243 10.9584 212.617 12.662 212.617 12.662C212.617 12.662 210.125 14.173 207.573 14.4507C205.022 14.7285 203.311 13.6026 203.359 12.3213Z" fill="#EBEBEB"/>
<path d="M212.617 12.6546C211.306 12.6546 209.999 12.6176 208.692 12.5768C207.384 12.5361 206.073 12.4694 204.766 12.3657C206.077 12.3657 207.388 12.3991 208.695 12.4398C210.003 12.4805 211.314 12.5472 212.617 12.6546Z" fill="#263238"/>
<path d="M205.896 11.1768C206.64 11.5328 207.342 11.9713 207.988 12.4841C207.616 12.3093 207.254 12.1114 206.907 11.8915C206.556 11.6732 206.218 11.4345 205.896 11.1768Z" fill="#263238"/>
<path d="M209.329 12.5322C208.659 13.0752 207.932 13.5445 207.162 13.9321C207.836 13.3885 208.566 12.9191 209.34 12.5322H209.329Z" fill="#263238"/>
<path d="M209.71 11.8101C210.084 11.9895 210.411 12.2532 210.666 12.5804C210.479 12.4922 210.303 12.3815 210.143 12.2508C209.983 12.1209 209.837 11.973 209.71 11.8101Z" fill="#263238"/>
<path d="M205.766 19.9314C206.555 20.9462 208.581 20.7017 210.362 18.8574C212.143 17.0131 213.088 14.2393 213.088 14.2393C213.088 14.2393 210.169 14.4615 207.944 15.7206C205.718 16.9798 204.973 18.913 205.766 19.9314Z" fill="#EBEBEB"/>
<path d="M213.088 14.2393C212.021 14.9799 210.984 15.8021 209.943 16.5983C208.903 17.3946 207.884 18.2167 206.888 19.0648C207.955 18.3241 208.992 17.5057 210.029 16.7094C211.066 15.9132 212.077 15.091 213.088 14.2393Z" fill="#263238"/>
<path d="M208.488 19.3575C208.686 18.9977 208.863 18.6268 209.018 18.2465C209.175 17.8651 209.309 17.4742 209.418 17.0762C209.219 17.4356 209.042 17.8066 208.888 18.1872C208.732 18.5691 208.598 18.9599 208.488 19.3575Z" fill="#263238"/>
<path d="M210.495 16.2616C209.629 16.2153 208.76 16.2612 207.903 16.3986C208.335 16.4245 208.767 16.4245 209.199 16.3986C209.633 16.3774 210.066 16.3317 210.495 16.2616Z" fill="#263238"/>
<path d="M211.21 16.6283C211.309 16.4454 211.386 16.2514 211.44 16.0505C211.494 15.8511 211.527 15.6461 211.536 15.4395C211.339 15.8061 211.228 16.2125 211.21 16.6283Z" fill="#263238"/>
<path d="M212.836 13.4915C212.627 13.5594 212.402 13.5637 212.19 13.5039C211.979 13.4441 211.79 13.3228 211.647 13.1554C211.504 12.9881 211.415 12.7821 211.389 12.5637C211.364 12.3453 211.404 12.1242 211.504 11.9285C211.604 11.7327 211.76 11.5711 211.952 11.4641C212.144 11.3571 212.364 11.3095 212.583 11.3274C212.802 11.3453 213.011 11.4278 213.183 11.5645C213.356 11.7012 213.483 11.8859 213.551 12.0953C213.64 12.3752 213.616 12.6793 213.482 12.941C213.348 13.2027 213.115 13.4007 212.836 13.4915Z" fill="#455A64"/>
<path d="M213.517 15.6061C213.308 15.6737 213.084 15.6779 212.872 15.618C212.661 15.5581 212.472 15.4369 212.33 15.2697C212.187 15.1025 212.097 14.8968 212.072 14.6786C212.046 14.4604 212.086 14.2395 212.186 14.0438C212.286 13.8481 212.441 13.6865 212.633 13.5792C212.825 13.472 213.044 13.4241 213.263 13.4415C213.482 13.4589 213.691 13.5408 213.863 13.6769C214.036 13.813 214.164 13.9972 214.232 14.2062C214.277 14.345 214.294 14.4914 214.283 14.6369C214.271 14.7824 214.231 14.9242 214.165 15.0542C214.098 15.1842 214.007 15.2999 213.896 15.3946C213.785 15.4893 213.656 15.5611 213.517 15.6061Z" fill="#455A64"/>
<path d="M92.1005 14.6624C91.923 16.3634 91.2764 17.9817 90.2327 19.3366C89.1891 20.6915 87.7894 21.7298 86.19 22.3355C84.5906 22.9412 82.8544 23.0906 81.175 22.767C79.4956 22.4434 77.9392 21.6594 76.6795 20.5027L72.0613 21.1804L74.3722 17.1881C73.8437 15.8891 73.6183 14.4867 73.7129 13.0875C73.8076 11.6883 74.2198 10.3291 74.9184 9.11307C75.617 7.89706 76.5836 6.85624 77.7446 6.06968C78.9057 5.28312 80.2307 4.77151 81.6191 4.57371C83.0075 4.3759 84.4227 4.49712 85.7572 4.92813C87.0918 5.35914 88.3105 6.08863 89.3209 7.06117C90.3313 8.03371 91.1068 9.22372 91.5884 10.5408C92.07 11.8579 92.2452 13.2675 92.1005 14.6624Z" fill="white"/>
<path d="M92.1005 14.6622C91.9267 16.3623 91.2859 17.9812 90.2487 19.3396C89.742 20.0266 89.131 20.6301 88.4378 21.1283C87.7597 21.6452 87.0115 22.063 86.2157 22.369C85.4194 22.6826 84.5828 22.8821 83.7307 22.9615C83.3047 22.9998 82.8765 23.0084 82.4493 22.9875C82.0206 22.9764 81.5934 22.9319 81.1716 22.8541C79.4696 22.541 77.8885 21.76 76.6053 20.5988L76.7127 20.6321L72.102 21.3394L71.765 21.3913L71.9353 21.095L74.2314 17.0953V17.2546C73.6896 15.9316 73.4593 14.5017 73.5582 13.0755C73.657 11.6492 74.0826 10.2648 74.8018 9.02926C75.5201 7.79757 76.5076 6.74423 77.6904 5.94801C78.8714 5.16236 80.2148 4.65427 81.6201 4.46186C83.0254 4.26944 84.456 4.39769 85.8046 4.83698C87.139 5.29094 88.355 6.03749 89.3636 7.022C90.3701 8.00405 91.1396 9.20244 91.6138 10.5262C92.088 11.85 92.2544 13.2645 92.1005 14.6622ZM92.1005 14.6622C92.2501 13.2713 92.0781 11.8647 91.5978 10.5509C91.1175 9.2371 90.3417 8.05125 89.3302 7.08492C88.3188 6.11858 87.0988 5.39761 85.7645 4.97766C84.4301 4.55772 83.0171 4.45003 81.6346 4.66292C80.2659 4.86551 78.9621 5.37995 77.8238 6.16651C76.6952 6.95926 75.7525 7.98787 75.061 9.1811C74.3801 10.377 73.9788 11.7115 73.887 13.0845C73.7968 14.4669 74.0196 15.8517 74.5388 17.1361L74.5722 17.2175L74.5277 17.2953L72.202 21.2802L72.039 21.0358L76.6609 20.3877H76.7238L76.7683 20.4284C78.0038 21.5783 79.5348 22.3618 81.1902 22.6912C81.6027 22.7752 82.0213 22.826 82.4419 22.843C82.8624 22.8727 83.2844 22.8727 83.7048 22.843C84.548 22.7751 85.3778 22.5919 86.1713 22.2986C86.9665 22.0091 87.7151 21.6049 88.3933 21.0987C89.0837 20.6045 89.6955 20.009 90.208 19.3322C91.2584 17.9804 91.9135 16.3639 92.1005 14.6622Z" fill="#263238"/>
<path d="M78.4089 18.006C78.4018 17.8834 78.42 17.7607 78.4623 17.6454C78.5046 17.5301 78.5702 17.4247 78.6549 17.3358C78.7397 17.2469 78.8418 17.1764 78.9549 17.1286C79.068 17.0808 79.1898 17.0567 79.3126 17.058C79.564 17.058 79.8052 17.1579 79.983 17.3357C80.1608 17.5135 80.2607 17.7546 80.2607 18.006C80.2607 18.2575 80.1608 18.4986 79.983 18.6764C79.8052 18.8542 79.564 18.9541 79.3126 18.9541C79.1898 18.9553 79.068 18.9313 78.9549 18.8835C78.8418 18.8357 78.7397 18.7652 78.6549 18.6763C78.5702 18.5874 78.5046 18.482 78.4623 18.3667C78.42 18.2514 78.4018 18.1287 78.4089 18.006ZM78.7793 15.8173L78.5645 8.46973H80.0459L79.8311 15.8173H78.7793Z" fill="#90CAF9"/>
<path d="M81.9309 18.006C81.9238 17.8837 81.9419 17.7613 81.984 17.6463C82.026 17.5312 82.0913 17.426 82.1756 17.3372C82.2599 17.2483 82.3616 17.1777 82.4743 17.1297C82.587 17.0817 82.7083 17.0573 82.8308 17.058C83.0823 17.058 83.3234 17.1579 83.5012 17.3357C83.679 17.5135 83.7789 17.7546 83.7789 18.006C83.7789 18.2575 83.679 18.4986 83.5012 18.6764C83.3234 18.8542 83.0823 18.9541 82.8308 18.9541C82.7083 18.9548 82.587 18.9304 82.4743 18.8824C82.3616 18.8344 82.2599 18.7638 82.1756 18.6749C82.0913 18.5861 82.026 18.4809 81.984 18.3658C81.9419 18.2508 81.9238 18.1283 81.9309 18.006ZM82.3012 15.8173L82.0975 8.46973H83.5789L83.3641 15.8173H82.3012Z" fill="#90CAF9"/>
<path d="M85.4492 18.006C85.4421 17.8834 85.4602 17.7607 85.5025 17.6454C85.5448 17.5301 85.6104 17.4247 85.6951 17.3358C85.7799 17.2469 85.882 17.1764 85.9951 17.1286C86.1082 17.0808 86.23 17.0567 86.3528 17.058C86.6042 17.058 86.8454 17.1579 87.0232 17.3357C87.201 17.5135 87.3009 17.7546 87.3009 18.006C87.3009 18.2575 87.201 18.4986 87.0232 18.6764C86.8454 18.8542 86.6042 18.9541 86.3528 18.9541C86.23 18.9553 86.1082 18.9313 85.9951 18.8835C85.882 18.8357 85.7799 18.7652 85.6951 18.6763C85.6104 18.5874 85.5448 18.482 85.5025 18.3667C85.4602 18.2514 85.4421 18.1287 85.4492 18.006ZM85.8195 15.8173L85.6047 8.46973H87.0861L86.875 15.8173H85.8195Z" fill="#90CAF9"/>
<path d="M65.248 176V164.72H66.8L73.344 173.184H72.928V164.72H74.848V176H73.296L66.768 167.536H67.168V176H65.248ZM80.8141 176.16C79.9821 176.16 79.2621 175.989 78.6541 175.648C78.0461 175.307 77.5715 174.821 77.2301 174.192C76.8995 173.563 76.7341 172.816 76.7341 171.952C76.7341 171.088 76.8995 170.347 77.2301 169.728C77.5715 169.099 78.0461 168.613 78.6541 168.272C79.2621 167.931 79.9821 167.76 80.8141 167.76C81.6461 167.76 82.3661 167.931 82.9741 168.272C83.5928 168.613 84.0675 169.099 84.3981 169.728C84.7395 170.347 84.9101 171.088 84.9101 171.952C84.9101 172.816 84.7395 173.563 84.3981 174.192C84.0675 174.821 83.5928 175.307 82.9741 175.648C82.3661 175.989 81.6461 176.16 80.8141 176.16ZM80.8141 174.624C81.4435 174.624 81.9448 174.405 82.3181 173.968C82.6915 173.52 82.8781 172.848 82.8781 171.952C82.8781 171.056 82.6915 170.389 82.3181 169.952C81.9448 169.515 81.4435 169.296 80.8141 169.296C80.1848 169.296 79.6835 169.515 79.3101 169.952C78.9368 170.389 78.7501 171.056 78.7501 171.952C78.7501 172.848 78.9368 173.52 79.3101 173.968C79.6835 174.405 80.1848 174.624 80.8141 174.624ZM96.4335 176.16C95.2602 176.16 94.2522 175.925 93.4095 175.456C92.5775 174.976 91.9375 174.304 91.4895 173.44C91.0415 172.565 90.8175 171.536 90.8175 170.352C90.8175 169.168 91.0415 168.144 91.4895 167.28C91.9375 166.416 92.5775 165.749 93.4095 165.28C94.2522 164.8 95.2602 164.56 96.4335 164.56C97.2228 164.56 97.9322 164.672 98.5615 164.896C99.2015 165.12 99.7508 165.451 100.21 165.888L99.5375 167.52C99.0362 167.115 98.5508 166.827 98.0815 166.656C97.6228 166.475 97.0948 166.384 96.4975 166.384C95.3562 166.384 94.4815 166.731 93.8735 167.424C93.2762 168.107 92.9775 169.083 92.9775 170.352C92.9775 171.621 93.2762 172.603 93.8735 173.296C94.4815 173.989 95.3562 174.336 96.4975 174.336C97.0948 174.336 97.6228 174.251 98.0815 174.08C98.5508 173.899 99.0362 173.6 99.5375 173.184L100.21 174.816C99.7508 175.243 99.2015 175.573 98.5615 175.808C97.9322 176.043 97.2228 176.16 96.4335 176.16ZM101.979 176V164.224H103.979V169.536H103.755C104 168.96 104.379 168.523 104.891 168.224C105.403 167.915 105.989 167.76 106.651 167.76C107.611 167.76 108.325 168.032 108.795 168.576C109.264 169.109 109.499 169.925 109.499 171.024V176H107.499V171.12C107.499 170.491 107.376 170.037 107.131 169.76C106.896 169.472 106.517 169.328 105.995 169.328C105.387 169.328 104.896 169.52 104.523 169.904C104.16 170.277 103.979 170.779 103.979 171.408V176H101.979ZM114.739 176.16C114.035 176.16 113.417 175.995 112.883 175.664C112.35 175.323 111.934 174.837 111.635 174.208C111.337 173.579 111.187 172.827 111.187 171.952C111.187 171.077 111.337 170.331 111.635 169.712C111.934 169.083 112.35 168.603 112.883 168.272C113.417 167.931 114.035 167.76 114.739 167.76C115.422 167.76 116.019 167.931 116.531 168.272C117.054 168.603 117.401 169.051 117.571 169.616H117.395L117.571 167.92H119.491C119.459 168.251 119.427 168.587 119.395 168.928C119.374 169.269 119.363 169.605 119.363 169.936V176H117.379L117.363 174.336H117.555C117.385 174.891 117.038 175.333 116.515 175.664C115.993 175.995 115.401 176.16 114.739 176.16ZM115.299 174.624C115.929 174.624 116.435 174.405 116.819 173.968C117.203 173.52 117.395 172.848 117.395 171.952C117.395 171.056 117.203 170.389 116.819 169.952C116.435 169.515 115.929 169.296 115.299 169.296C114.67 169.296 114.163 169.515 113.779 169.952C113.395 170.389 113.203 171.056 113.203 171.952C113.203 172.848 113.39 173.52 113.763 173.968C114.147 174.405 114.659 174.624 115.299 174.624ZM124.997 176.16C124.037 176.16 123.312 175.909 122.821 175.408C122.33 174.907 122.085 174.155 122.085 173.152V169.424H120.533V167.92H122.085V165.856L124.085 165.344V167.92H126.245V169.424H124.085V173.024C124.085 173.579 124.192 173.968 124.405 174.192C124.618 174.416 124.912 174.528 125.285 174.528C125.488 174.528 125.658 174.512 125.797 174.48C125.946 174.448 126.09 174.405 126.229 174.352V175.936C126.048 176.011 125.845 176.064 125.621 176.096C125.408 176.139 125.2 176.16 124.997 176.16ZM130.484 176.16C129.79 176.16 129.15 176.08 128.564 175.92C127.988 175.749 127.502 175.515 127.108 175.216L127.668 173.872C128.073 174.149 128.521 174.363 129.012 174.512C129.502 174.661 129.998 174.736 130.5 174.736C131.033 174.736 131.428 174.645 131.684 174.464C131.95 174.283 132.084 174.037 132.084 173.728C132.084 173.483 131.998 173.291 131.828 173.152C131.668 173.003 131.406 172.891 131.044 172.816L129.444 172.512C128.761 172.363 128.238 172.107 127.876 171.744C127.524 171.381 127.348 170.907 127.348 170.32C127.348 169.819 127.481 169.376 127.748 168.992C128.025 168.608 128.414 168.309 128.916 168.096C129.428 167.872 130.025 167.76 130.708 167.76C131.305 167.76 131.865 167.84 132.388 168C132.921 168.16 133.369 168.4 133.732 168.72L133.156 170.016C132.825 169.749 132.446 169.541 132.02 169.392C131.593 169.243 131.177 169.168 130.772 169.168C130.217 169.168 129.812 169.269 129.556 169.472C129.3 169.664 129.172 169.915 129.172 170.224C129.172 170.459 129.246 170.656 129.396 170.816C129.556 170.965 129.801 171.077 130.132 171.152L131.732 171.456C132.446 171.595 132.985 171.84 133.348 172.192C133.721 172.533 133.908 173.003 133.908 173.6C133.908 174.133 133.764 174.592 133.476 174.976C133.188 175.36 132.788 175.653 132.276 175.856C131.764 176.059 131.166 176.16 130.484 176.16ZM142.922 176V170.672L143.354 171.904L138.506 164.72H140.89L144.218 169.84H143.77L147.098 164.72H149.402L144.57 171.904L144.986 170.672V176H142.922ZM152.648 176.16C151.294 176.16 150.232 175.787 149.464 175.04C148.696 174.293 148.312 173.269 148.312 171.968C148.312 171.125 148.478 170.389 148.808 169.76C149.139 169.131 149.598 168.64 150.184 168.288C150.782 167.936 151.475 167.76 152.264 167.76C153.043 167.76 153.694 167.925 154.216 168.256C154.739 168.587 155.134 169.051 155.4 169.648C155.678 170.245 155.816 170.944 155.816 171.744V172.272H149.928V171.216H154.392L154.12 171.44C154.12 170.693 153.96 170.123 153.64 169.728C153.331 169.333 152.878 169.136 152.28 169.136C151.619 169.136 151.107 169.371 150.744 169.84C150.392 170.309 150.216 170.965 150.216 171.808V172.016C150.216 172.891 150.43 173.547 150.856 173.984C151.294 174.411 151.907 174.624 152.696 174.624C153.155 174.624 153.582 174.565 153.976 174.448C154.382 174.32 154.766 174.117 155.128 173.84L155.72 175.184C155.336 175.493 154.878 175.733 154.344 175.904C153.811 176.075 153.246 176.16 152.648 176.16ZM160.935 176.16C159.975 176.16 159.249 175.909 158.759 175.408C158.268 174.907 158.023 174.155 158.023 173.152V169.424H156.471V167.92H158.023V165.856L160.023 165.344V167.92H162.183V169.424H160.023V173.024C160.023 173.579 160.129 173.968 160.343 174.192C160.556 174.416 160.849 174.528 161.223 174.528C161.425 174.528 161.596 174.512 161.735 174.48C161.884 174.448 162.028 174.405 162.167 174.352V175.936C161.985 176.011 161.783 176.064 161.559 176.096C161.345 176.139 161.137 176.16 160.935 176.16Z" fill="#303030"/>
</svg>
