<svg width="20" height="20" viewBox="0 0 20 20" fill="none" xmlns="http://www.w3.org/2000/svg">
<path d="M10.0001 19.0445C10.3501 19.0364 10.6859 18.9049 10.9482 18.6731C11.2105 18.4413 11.3824 18.1241 11.4335 17.7778H8.51123C8.56372 18.1336 8.74363 18.4581 9.01751 18.6911C9.29139 18.9241 9.64058 19.0497 10.0001 19.0445Z" fill="#424242"/>
<path d="M18.2499 15.6278L18.061 15.4611C17.5251 14.9836 17.0561 14.4361 16.6666 13.8333C16.2411 13.0014 15.9861 12.0929 15.9166 11.1611V8.41664C15.9143 8.08328 15.8846 7.75067 15.8277 7.4222C14.8866 7.22877 14.0413 6.7161 13.4349 5.97096C12.8285 5.22583 12.4982 4.29403 12.4999 3.33331V2.98331C11.9198 2.69786 11.2967 2.51015 10.6554 2.42775V1.72775C10.6554 1.53105 10.5773 1.3424 10.4382 1.20331C10.2991 1.06422 10.1105 0.986084 9.91378 0.986084C9.71708 0.986084 9.52843 1.06422 9.38934 1.20331C9.25025 1.3424 9.17211 1.53105 9.17211 1.72775V2.45553C7.7364 2.65806 6.42243 3.37316 5.47279 4.46882C4.52315 5.56449 4.00196 6.96672 4.00545 8.41664V11.1611C3.93587 12.0929 3.68088 13.0014 3.25545 13.8333C2.8726 14.4346 2.41111 14.9821 1.88322 15.4611L1.69434 15.6278V17.1944H18.2499V15.6278Z" fill="#424242"/>
<path d="M16.6667 6.1111C18.2008 6.1111 19.4445 4.86744 19.4445 3.33332C19.4445 1.7992 18.2008 0.555542 16.6667 0.555542C15.1326 0.555542 13.8889 1.7992 13.8889 3.33332C13.8889 4.86744 15.1326 6.1111 16.6667 6.1111Z" fill="#B70817"/>
</svg>
