<svg width="11" height="18" viewBox="0 0 11 18" fill="none" xmlns="http://www.w3.org/2000/svg">
<path d="M5.39921 17.9984C4.00359 18.0323 2.65149 17.5114 1.63937 16.5499C0.62725 15.5883 0.0377061 14.2647 0 12.8692V3.71755C0.0259468 2.70871 0.450514 1.75124 1.18077 1.05471C1.91103 0.358186 2.88749 -0.0206622 3.89643 0.00109246C4.9069 -0.0230791 5.88568 0.354692 6.61789 1.05148C7.35011 1.74826 7.77592 2.70711 7.80185 3.71755V12.8782C7.76443 13.4888 7.49548 14.0622 7.04985 14.4813C6.60422 14.9005 6.01549 15.1339 5.40371 15.1339C4.79193 15.1339 4.20319 14.9005 3.75756 14.4813C3.31193 14.0622 3.04298 13.4888 3.00556 12.8782V4.42844C3.00556 4.18978 3.10037 3.9609 3.26912 3.79214C3.43788 3.62338 3.66677 3.52857 3.90543 3.52857C4.14409 3.52857 4.37297 3.62338 4.54173 3.79214C4.71049 3.9609 4.80529 4.18978 4.80529 4.42844V12.8782C4.82324 13.0243 4.89399 13.1587 5.00422 13.2562C5.11445 13.3538 5.25654 13.4076 5.40371 13.4076C5.55088 13.4076 5.69296 13.3538 5.80319 13.2562C5.91342 13.1587 5.98417 13.0243 6.00212 12.8782V3.71755C5.97414 3.18519 5.73735 2.68535 5.34312 2.32651C4.9489 1.96766 4.42906 1.77877 3.89643 1.80083C3.36532 1.78119 2.84779 1.97117 2.45552 2.32977C2.06326 2.68836 1.82772 3.18681 1.79974 3.71755V12.8692C1.8372 13.7875 2.23704 14.6534 2.91169 15.2775C3.58635 15.9016 4.48082 16.2328 5.39921 16.1987C6.3176 16.2328 7.21207 15.9016 7.88672 15.2775C8.56137 14.6534 8.96122 13.7875 8.99868 12.8692V3.71755C8.99868 3.47889 9.09348 3.25 9.26224 3.08124C9.431 2.91249 9.65989 2.81768 9.89855 2.81768C10.1372 2.81768 10.3661 2.91249 10.5348 3.08124C10.7036 3.25 10.7984 3.47889 10.7984 3.71755V12.8692C10.7607 14.2647 10.1712 15.5883 9.15904 16.5499C8.14692 17.5114 6.79483 18.0323 5.39921 17.9984Z" fill="#313131"/>
</svg>
