<svg width="17" height="16" viewBox="0 0 17 16" fill="none" xmlns="http://www.w3.org/2000/svg">
<path d="M16.3775 7.19492L1.26808 0.0845837C1.11593 0.0129918 0.946594 -0.0139719 0.779736 0.00682402C0.612878 0.0276199 0.455343 0.0953221 0.325423 0.202069C0.195503 0.308815 0.098529 0.450227 0.0457623 0.609882C-0.00700434 0.769536 -0.0133991 0.940885 0.0273209 1.10403L1.10454 5.41378L7.99979 7.99928L1.10454 10.5848L0.0273209 14.8945C-0.0141652 15.0578 -0.00830421 15.2295 0.0442184 15.3896C0.096741 15.5496 0.193754 15.6914 0.323908 15.7983C0.454062 15.9053 0.611977 15.9729 0.77918 15.9934C0.946382 16.0139 1.11596 15.9863 1.26808 15.914L16.3775 8.80364C16.5302 8.73186 16.6593 8.61811 16.7498 8.47567C16.8402 8.33323 16.8882 8.168 16.8882 7.99928C16.8882 7.83056 16.8402 7.66533 16.7498 7.52289C16.6593 7.38045 16.5302 7.2667 16.3775 7.19492Z" fill="#313131"/>
</svg>
