<svg width="16" height="16" viewBox="0 0 16 16" fill="none" xmlns="http://www.w3.org/2000/svg">
<path d="M8.00782 6.10308C7.54063 6.10308 7.10313 6.28433 6.77188 6.61558C6.44219 6.94683 6.25938 7.38433 6.25938 7.85151C6.25938 8.3187 6.44219 8.7562 6.77188 9.08745C7.10313 9.41714 7.54063 9.59995 8.00782 9.59995C8.47501 9.59995 8.91251 9.41714 9.24376 9.08745C9.57344 8.7562 9.75626 8.3187 9.75626 7.85151C9.75626 7.38433 9.57344 6.94683 9.24376 6.61558C9.08197 6.45254 8.88939 6.32328 8.67722 6.2353C8.46505 6.14732 8.23751 6.10237 8.00782 6.10308ZM14.45 9.78276L13.4281 8.90933C13.4766 8.61245 13.5016 8.30933 13.5016 8.00776C13.5016 7.7062 13.4766 7.40151 13.4281 7.1062L14.45 6.23276C14.5272 6.16668 14.5825 6.07866 14.6084 5.98042C14.6344 5.88217 14.6298 5.77835 14.5953 5.68276L14.5813 5.64214C14.3 4.85572 13.8786 4.12676 13.3375 3.49058L13.3094 3.45776C13.2437 3.3805 13.1561 3.32496 13.0582 3.29846C12.9603 3.27197 12.8567 3.27575 12.7609 3.30933L11.4922 3.76089C11.0234 3.37651 10.5016 3.07339 9.93595 2.86245L9.69063 1.53589C9.67212 1.43595 9.62365 1.34402 9.55164 1.27229C9.47964 1.20057 9.38751 1.15245 9.28751 1.13433L9.24532 1.12651C8.43282 0.979639 7.57657 0.979639 6.76407 1.12651L6.72188 1.13433C6.62188 1.15245 6.52975 1.20057 6.45775 1.27229C6.38574 1.34402 6.33727 1.43595 6.31876 1.53589L6.07188 2.8687C5.51161 3.08132 4.98969 3.38371 4.52657 3.76401L3.24844 3.30933C3.15277 3.27549 3.04906 3.27156 2.95109 3.29808C2.85313 3.32459 2.76556 3.38029 2.70001 3.45776L2.67188 3.49058C2.13171 4.12744 1.71043 4.85621 1.42813 5.64214L1.41407 5.68276C1.34376 5.87808 1.40157 6.09683 1.55938 6.23276L2.59376 7.11558C2.54532 7.40933 2.52188 7.70933 2.52188 8.0062C2.52188 8.3062 2.54532 8.6062 2.59376 8.89683L1.56251 9.77964C1.48531 9.84572 1.43006 9.93374 1.40411 10.032C1.37815 10.1302 1.38272 10.234 1.4172 10.3296L1.43126 10.3703C1.71407 11.1562 2.13126 11.8828 2.67501 12.5218L2.70313 12.5546C2.76884 12.6319 2.85642 12.6874 2.95432 12.7139C3.05223 12.7404 3.15586 12.7367 3.25157 12.7031L4.5297 12.2484C4.99532 12.6312 5.51407 12.9343 6.07501 13.1437L6.32188 14.4765C6.34039 14.5764 6.38887 14.6684 6.46087 14.7401C6.53288 14.8118 6.625 14.86 6.72501 14.8781L6.7672 14.8859C7.58769 15.0336 8.42795 15.0336 9.24845 14.8859L9.29063 14.8781C9.39064 14.86 9.48276 14.8118 9.55477 14.7401C9.62677 14.6684 9.67525 14.5764 9.69376 14.4765L9.93907 13.15C10.5047 12.9375 11.0266 12.6359 11.4953 12.2515L12.7641 12.7031C12.8597 12.7369 12.9635 12.7408 13.0614 12.7143C13.1594 12.6878 13.247 12.6321 13.3125 12.5546L13.3406 12.5218C13.8844 11.8796 14.3016 11.1562 14.5844 10.3703L14.5984 10.3296C14.6656 10.1359 14.6078 9.9187 14.45 9.78276ZM8.00782 10.5984C6.49063 10.5984 5.26095 9.3687 5.26095 7.85151C5.26095 6.33433 6.49063 5.10464 8.00782 5.10464C9.52501 5.10464 10.7547 6.33433 10.7547 7.85151C10.7547 9.3687 9.52501 10.5984 8.00782 10.5984Z" fill="white"/>
</svg>
